<svg id="svg" version="1.1" xmlns="http://www.w3.org/2000/svg" xmlns:xlink="http://www.w3.org/1999/xlink" width="400" height="400" viewBox="0, 0, 400,400"><g id="svgg"><path id="path0" d="M44.328 266.011 C 43.913 266.076,43.217 266.250,42.781 266.398 C 42.345 266.546,41.882 266.667,41.752 266.667 C 41.508 266.667,40.444 267.301,40.000 267.710 C 39.555 268.121,38.656 269.167,38.748 269.167 C 38.797 269.167,38.653 269.458,38.428 269.815 C 38.203 270.172,38.053 270.498,38.095 270.539 C 38.137 270.581,38.048 270.908,37.897 271.266 C 37.397 272.453,37.603 273.984,38.688 277.167 C 38.860 277.671,39.020 278.364,39.042 278.706 C 39.065 279.049,39.170 279.362,39.275 279.403 C 39.381 279.444,39.521 279.801,39.586 280.197 C 39.652 280.593,39.813 281.125,39.943 281.380 C 40.074 281.635,40.135 281.916,40.080 282.005 C 40.025 282.094,40.065 282.167,40.169 282.167 C 40.272 282.167,40.341 282.335,40.321 282.542 C 40.301 282.748,40.418 283.217,40.581 283.583 C 40.743 283.950,40.892 284.444,40.911 284.681 C 40.931 284.918,41.000 285.199,41.066 285.306 C 41.132 285.413,41.140 285.575,41.083 285.667 C 41.027 285.758,41.057 285.833,41.150 285.833 C 41.244 285.833,41.406 286.152,41.511 286.542 C 41.616 286.931,41.854 287.684,42.040 288.214 C 42.226 288.744,42.337 289.219,42.286 289.269 C 42.236 289.320,42.375 289.748,42.596 290.222 C 42.816 290.696,42.997 291.256,42.998 291.467 C 42.999 291.677,43.122 292.087,43.272 292.376 C 43.422 292.665,43.563 293.093,43.585 293.326 C 43.623 293.718,43.723 294.029,44.181 295.184 C 44.276 295.423,44.368 295.891,44.385 296.225 C 44.402 296.559,44.461 296.832,44.515 296.833 C 44.671 296.834,44.999 297.646,45.007 298.050 C 45.011 298.251,45.130 298.717,45.271 299.083 C 45.412 299.450,45.548 299.862,45.574 300.000 C 45.599 300.137,45.675 300.378,45.742 300.534 C 45.808 300.690,45.814 300.896,45.755 300.992 C 45.696 301.088,45.711 301.167,45.790 301.167 C 46.023 301.167,46.581 303.063,46.496 303.565 C 46.483 303.646,46.554 303.764,46.656 303.827 C 46.814 303.924,47.445 305.757,47.576 306.500 C 47.601 306.637,47.660 306.862,47.707 307.000 C 47.755 307.137,47.964 307.813,48.171 308.500 C 48.378 309.188,48.658 310.024,48.792 310.359 C 48.926 310.694,49.055 311.182,49.077 311.442 C 49.100 311.703,49.243 312.209,49.395 312.567 C 49.547 312.925,49.633 313.256,49.587 313.302 C 49.541 313.348,49.586 313.486,49.687 313.608 C 49.788 313.729,49.827 313.943,49.774 314.081 C 49.721 314.220,49.758 314.333,49.856 314.333 C 49.955 314.333,49.992 314.446,49.940 314.583 C 49.887 314.721,49.911 314.833,49.992 314.833 C 50.145 314.833,50.455 315.692,50.489 316.208 C 50.537 316.954,50.580 317.137,50.689 317.070 C 50.856 316.967,51.216 318.132,51.106 318.418 C 51.056 318.549,51.091 318.703,51.185 318.762 C 51.279 318.820,51.316 318.972,51.267 319.100 C 51.217 319.228,51.241 319.333,51.318 319.333 C 51.515 319.333,51.883 320.270,51.790 320.533 C 51.748 320.652,51.890 321.104,52.107 321.536 C 52.323 321.968,52.500 322.515,52.500 322.751 C 52.500 322.987,52.650 323.474,52.833 323.833 C 53.017 324.193,53.167 324.637,53.167 324.821 C 53.167 325.004,53.313 325.525,53.491 325.977 C 53.669 326.429,53.814 326.938,53.814 327.108 C 53.811 327.711,53.920 328.086,54.150 328.266 C 54.279 328.367,54.331 328.536,54.266 328.641 C 54.200 328.747,54.226 328.833,54.322 328.833 C 54.418 328.833,54.484 329.002,54.470 329.208 C 54.456 329.415,54.617 329.979,54.828 330.463 C 55.039 330.947,55.165 331.391,55.107 331.448 C 55.050 331.506,55.064 331.635,55.139 331.735 C 55.334 331.994,55.853 333.434,55.813 333.606 C 55.775 333.774,55.958 334.307,56.176 334.667 C 56.260 334.804,56.444 335.174,56.585 335.488 C 56.810 335.991,58.379 337.820,58.589 337.826 C 58.633 337.828,59.062 338.031,59.543 338.278 C 60.625 338.834,65.333 338.989,65.333 338.468 C 65.333 338.297,66.705 337.586,66.917 337.647 C 67.008 337.673,67.029 337.641,66.964 337.575 C 66.898 337.509,67.114 337.240,67.445 336.978 C 67.775 336.715,67.986 336.500,67.914 336.500 C 67.841 336.500,67.893 336.369,68.029 336.208 C 69.376 334.618,69.737 330.909,68.733 328.967 C 68.585 328.680,68.453 328.158,68.440 327.807 C 68.427 327.456,68.371 327.168,68.314 327.168 C 68.258 327.167,68.085 326.735,67.929 326.208 C 67.773 325.681,67.540 324.958,67.411 324.602 C 67.281 324.246,67.215 323.889,67.264 323.810 C 67.313 323.731,67.274 323.667,67.177 323.667 C 67.079 323.667,67.000 323.498,67.000 323.292 C 67.000 323.085,66.848 322.517,66.662 322.029 C 66.477 321.540,66.342 321.053,66.364 320.945 C 66.386 320.838,66.309 320.580,66.194 320.372 C 66.079 320.163,66.030 319.920,66.085 319.830 C 66.141 319.740,66.116 319.667,66.030 319.667 C 65.945 319.667,65.760 319.235,65.620 318.708 C 65.479 318.181,65.289 317.525,65.197 317.250 C 65.105 316.975,64.874 316.225,64.683 315.583 C 64.493 314.942,64.143 313.827,63.907 313.107 C 63.671 312.387,63.518 311.693,63.567 311.565 C 63.616 311.438,63.593 311.333,63.515 311.333 C 63.305 311.333,63.017 310.507,62.964 309.750 C 62.938 309.383,62.823 308.984,62.709 308.863 C 62.594 308.742,62.455 308.442,62.400 308.197 C 62.345 307.951,62.224 307.450,62.132 307.083 C 62.040 306.717,61.979 306.388,61.997 306.352 C 62.014 306.316,61.946 306.237,61.846 306.175 C 61.746 306.113,61.646 305.748,61.623 305.365 C 61.601 304.982,61.532 304.668,61.470 304.668 C 61.353 304.667,61.136 304.112,61.079 303.667 C 61.061 303.529,60.989 303.282,60.919 303.118 C 60.849 302.953,60.835 302.776,60.888 302.723 C 60.941 302.670,60.882 302.524,60.756 302.399 C 60.631 302.274,60.414 301.701,60.275 301.127 C 60.136 300.553,59.908 299.783,59.768 299.417 C 59.629 299.050,59.511 298.615,59.507 298.450 C 59.503 298.285,59.381 297.919,59.235 297.637 C 59.089 297.355,58.949 296.846,58.923 296.506 C 58.898 296.167,58.749 295.693,58.592 295.454 C 58.436 295.215,58.283 294.733,58.254 294.384 C 58.225 294.035,58.045 293.412,57.854 293.000 C 57.663 292.587,57.506 292.125,57.504 291.973 C 57.502 291.821,57.360 291.296,57.188 290.806 C 57.017 290.317,56.707 289.354,56.499 288.667 C 56.291 287.979,55.976 286.995,55.798 286.480 C 55.621 285.965,55.496 285.440,55.520 285.313 C 55.545 285.187,55.400 284.731,55.199 284.301 C 54.998 283.870,54.832 283.345,54.830 283.134 C 54.828 282.923,54.679 282.426,54.500 282.031 C 54.320 281.635,54.153 281.016,54.128 280.656 C 54.104 280.295,54.036 280.000,53.979 280.000 C 53.824 280.000,53.439 279.005,53.551 278.894 C 53.604 278.841,53.464 278.384,53.240 277.878 C 53.016 277.372,52.830 276.799,52.826 276.604 C 52.822 276.409,52.702 275.950,52.558 275.583 C 52.415 275.217,52.278 274.767,52.254 274.583 C 52.205 274.213,52.090 273.868,51.726 272.994 C 51.592 272.669,51.467 272.126,51.449 271.786 C 51.431 271.446,51.367 271.168,51.305 271.167 C 51.169 271.166,50.569 269.637,50.631 269.446 C 50.655 269.370,50.603 269.353,50.516 269.407 C 50.429 269.461,50.313 269.366,50.259 269.196 C 50.151 268.855,48.182 266.892,47.917 266.860 C 47.584 266.821,45.412 266.131,45.250 266.014 C 45.158 265.948,44.744 265.946,44.328 266.011 M353.750 266.175 C 353.475 266.252,352.899 266.399,352.470 266.502 C 352.040 266.605,351.600 266.796,351.491 266.928 C 351.382 267.059,351.203 267.167,351.094 267.167 C 350.985 267.167,350.683 267.389,350.422 267.661 C 350.162 267.932,349.894 268.121,349.827 268.079 C 349.759 268.038,349.602 268.134,349.477 268.294 C 349.269 268.559,349.278 268.564,349.583 268.354 C 349.767 268.228,349.706 268.322,349.449 268.563 C 349.192 268.803,349.020 269.000,349.068 269.000 C 349.115 269.000,348.905 269.478,348.600 270.062 C 348.067 271.086,347.839 271.712,347.743 272.417 C 347.718 272.600,347.575 273.125,347.424 273.583 C 347.274 274.042,347.069 274.679,346.969 275.000 C 346.869 275.321,346.713 275.771,346.622 276.000 C 346.531 276.229,346.436 276.567,346.410 276.750 C 346.385 276.933,346.254 277.421,346.118 277.833 C 345.982 278.246,345.705 279.146,345.502 279.833 C 345.299 280.521,345.060 281.327,344.970 281.625 C 344.881 281.923,344.741 282.167,344.659 282.167 C 344.577 282.167,344.551 282.272,344.600 282.400 C 344.649 282.528,344.608 282.683,344.509 282.745 C 344.409 282.806,344.373 282.930,344.429 283.020 C 344.485 283.110,344.381 283.649,344.199 284.217 C 344.017 284.785,343.699 285.813,343.494 286.500 C 343.289 287.188,342.990 288.162,342.830 288.667 C 342.670 289.171,342.335 290.258,342.086 291.083 C 341.837 291.908,341.530 292.846,341.405 293.167 C 341.280 293.487,341.127 294.050,341.067 294.417 C 341.006 294.783,340.874 295.233,340.774 295.417 C 340.674 295.600,340.505 296.125,340.400 296.583 C 340.294 297.042,340.123 297.642,340.020 297.917 C 339.916 298.192,339.755 298.732,339.661 299.117 C 339.568 299.503,339.399 299.915,339.287 300.034 C 339.175 300.153,339.070 300.400,339.053 300.583 C 338.988 301.295,338.881 301.766,338.710 302.085 C 338.613 302.267,338.479 302.774,338.414 303.211 C 338.345 303.669,338.179 304.072,338.022 304.164 C 337.873 304.252,337.801 304.325,337.863 304.328 C 337.926 304.331,337.899 304.577,337.805 304.875 C 337.710 305.173,337.639 305.588,337.648 305.797 C 337.657 306.007,337.571 306.214,337.457 306.258 C 337.343 306.302,337.230 306.618,337.205 306.961 C 337.181 307.303,337.087 307.608,336.996 307.639 C 336.905 307.670,336.876 307.768,336.932 307.858 C 337.043 308.037,336.692 309.000,336.515 309.000 C 336.413 309.000,336.368 309.223,336.324 309.958 C 336.299 310.362,335.983 311.167,335.849 311.167 C 335.746 311.167,335.701 311.390,335.657 312.125 C 335.633 312.529,335.317 313.333,335.182 313.333 C 335.080 313.333,335.038 313.541,334.989 314.292 C 334.955 314.808,334.645 315.667,334.492 315.667 C 334.411 315.667,334.384 315.772,334.433 315.900 C 334.482 316.028,334.441 316.183,334.342 316.245 C 334.243 316.306,334.205 316.428,334.259 316.515 C 334.382 316.714,334.023 317.833,333.836 317.833 C 333.760 317.833,333.737 317.983,333.785 318.167 C 333.836 318.360,333.790 318.500,333.676 318.500 C 333.569 318.500,333.528 318.577,333.587 318.672 C 333.645 318.767,333.539 319.310,333.351 319.880 C 332.684 321.900,332.477 322.591,332.328 323.289 C 332.245 323.678,332.063 324.218,331.922 324.489 C 331.782 324.761,331.667 325.099,331.667 325.241 C 331.667 325.383,331.527 325.930,331.356 326.458 C 330.174 330.104,330.119 330.335,330.101 331.788 C 330.077 333.726,330.196 334.687,330.500 335.013 C 330.772 335.304,331.344 336.308,331.286 336.391 C 331.217 336.490,333.099 337.920,333.713 338.235 C 334.054 338.409,334.333 338.601,334.333 338.661 C 334.333 338.996,338.929 338.743,339.554 338.373 C 339.905 338.166,340.254 338.034,340.329 338.080 C 340.404 338.127,340.512 338.042,340.570 337.892 C 340.627 337.742,340.712 337.656,340.757 337.702 C 340.860 337.805,342.440 336.289,342.380 336.144 C 342.356 336.086,342.449 335.945,342.585 335.832 C 342.722 335.719,342.833 335.570,342.833 335.501 C 342.833 335.432,342.999 335.010,343.201 334.563 C 343.403 334.116,343.551 333.687,343.529 333.609 C 343.476 333.420,343.875 332.333,343.998 332.333 C 344.051 332.333,344.105 332.202,344.116 332.042 C 344.165 331.367,344.329 330.709,344.603 330.083 C 344.764 329.717,344.877 329.347,344.855 329.263 C 344.832 329.178,344.961 328.691,345.140 328.180 C 345.318 327.668,345.551 326.931,345.656 326.542 C 345.761 326.152,345.900 325.833,345.965 325.833 C 346.030 325.833,346.102 325.552,346.125 325.208 C 346.170 324.550,346.468 323.667,346.645 323.666 C 346.703 323.666,346.769 323.385,346.793 323.041 C 346.834 322.452,347.160 321.323,347.840 319.417 C 348.004 318.958,348.186 318.298,348.245 317.950 C 348.304 317.601,348.441 317.281,348.551 317.239 C 348.660 317.197,348.772 316.825,348.798 316.413 C 348.825 316.000,349.003 315.307,349.194 314.873 C 349.385 314.439,349.559 313.893,349.582 313.659 C 349.604 313.426,349.745 312.999,349.895 312.709 C 350.044 312.420,350.167 311.996,350.167 311.768 C 350.167 311.540,350.243 311.306,350.336 311.248 C 350.429 311.191,350.463 311.075,350.412 310.992 C 350.360 310.908,350.406 310.675,350.514 310.473 C 350.622 310.271,350.806 309.726,350.922 309.261 C 351.038 308.797,351.227 308.154,351.342 307.833 C 351.638 307.005,351.707 306.783,351.756 306.500 C 351.780 306.362,351.879 306.025,351.976 305.750 C 352.463 304.376,352.736 303.423,353.090 301.868 C 353.137 301.658,353.251 301.533,353.342 301.589 C 353.434 301.645,353.492 301.630,353.473 301.554 C 353.352 301.086,353.923 299.000,354.171 299.000 C 354.243 299.000,354.265 298.858,354.220 298.685 C 354.175 298.512,354.216 298.323,354.312 298.263 C 354.407 298.204,354.446 298.053,354.397 297.926 C 354.349 297.800,354.419 297.484,354.552 297.223 C 354.686 296.963,354.884 296.319,354.993 295.792 C 355.101 295.265,355.285 294.739,355.400 294.624 C 355.516 294.508,355.581 294.327,355.546 294.222 C 355.511 294.117,355.558 293.984,355.651 293.927 C 355.743 293.869,355.781 293.724,355.735 293.604 C 355.689 293.484,355.805 292.996,355.992 292.520 C 356.180 292.044,356.333 291.505,356.333 291.322 C 356.333 291.139,356.507 290.635,356.720 290.203 C 356.933 289.770,357.080 289.301,357.048 289.159 C 357.015 289.017,357.156 288.530,357.360 288.076 C 357.564 287.622,357.712 287.091,357.690 286.896 C 357.667 286.701,357.761 286.429,357.900 286.291 C 358.038 286.153,358.104 285.993,358.048 285.937 C 357.991 285.880,358.013 285.833,358.097 285.833 C 358.181 285.833,358.272 285.519,358.298 285.134 C 358.324 284.750,358.505 284.094,358.699 283.676 C 358.893 283.258,359.037 282.852,359.019 282.772 C 358.970 282.552,359.344 281.500,359.471 281.500 C 359.533 281.500,359.605 281.183,359.632 280.797 C 359.658 280.411,359.733 280.055,359.798 280.006 C 359.863 279.957,359.920 279.842,359.923 279.750 C 359.931 279.546,360.262 278.398,360.668 277.167 C 360.835 276.662,361.023 275.995,361.087 275.684 C 361.151 275.373,361.316 274.850,361.454 274.520 C 361.787 273.723,361.777 272.030,361.435 271.369 C 361.287 271.084,361.167 270.752,361.167 270.632 C 361.167 270.512,360.977 270.058,360.746 269.624 C 360.515 269.189,360.358 268.833,360.398 268.833 C 360.439 268.833,360.234 268.587,359.944 268.285 C 359.654 267.984,359.375 267.754,359.324 267.775 C 359.274 267.796,358.970 267.573,358.649 267.281 C 358.328 266.989,357.882 266.724,357.658 266.693 C 357.433 266.661,356.840 266.493,356.339 266.318 C 355.383 265.984,354.585 265.940,353.750 266.175 " stroke="none" fill="#040404" fill-rule="evenodd"></path><path id="path1" d="M192.167 54.843 C 191.662 54.917,189.868 55.060,188.179 55.160 C 186.491 55.260,184.616 55.448,184.013 55.577 C 183.410 55.706,182.279 55.860,181.500 55.920 C 180.721 55.980,179.671 56.130,179.167 56.253 C 178.662 56.376,177.762 56.525,177.167 56.583 C 176.571 56.642,175.746 56.792,175.333 56.916 C 174.921 57.041,174.246 57.190,173.833 57.247 C 172.854 57.381,170.286 57.951,169.333 58.245 C 168.921 58.372,168.283 58.526,167.917 58.586 C 167.550 58.646,166.818 58.839,166.291 59.014 C 165.764 59.190,165.164 59.335,164.958 59.337 C 164.752 59.339,164.256 59.489,163.857 59.670 C 163.457 59.852,162.947 60.000,162.724 60.000 C 162.500 60.000,162.103 60.110,161.843 60.245 C 161.582 60.380,161.079 60.563,160.726 60.651 C 160.372 60.739,159.708 60.941,159.250 61.101 C 158.792 61.260,158.042 61.519,157.583 61.676 C 156.762 61.956,156.229 62.142,154.917 62.603 C 154.550 62.732,154.051 62.949,153.808 63.086 C 153.564 63.222,153.227 63.334,153.058 63.334 C 152.888 63.335,152.525 63.485,152.250 63.667 C 151.975 63.849,151.600 63.999,151.417 64.000 C 151.233 64.000,150.838 64.151,150.538 64.334 C 150.238 64.517,149.915 64.667,149.822 64.667 C 149.728 64.667,149.073 64.937,148.367 65.266 C 145.876 66.430,145.413 66.635,145.000 66.756 C 144.771 66.824,144.404 67.019,144.186 67.190 C 143.967 67.360,143.658 67.500,143.498 67.500 C 143.338 67.500,143.120 67.605,143.014 67.734 C 142.907 67.862,142.617 68.018,142.369 68.080 C 142.121 68.143,141.835 68.263,141.732 68.348 C 141.629 68.433,140.691 68.938,139.648 69.470 C 138.604 70.002,137.440 70.634,137.062 70.874 C 136.684 71.115,136.121 71.429,135.812 71.572 C 135.503 71.715,135.045 71.964,134.795 72.125 C 134.386 72.387,131.424 74.206,130.583 74.712 C 129.807 75.179,124.860 78.453,124.235 78.914 C 123.860 79.191,123.090 79.754,122.523 80.167 C 121.713 80.756,118.507 83.221,117.583 83.965 C 115.530 85.620,114.257 86.688,113.583 87.324 C 113.125 87.756,112.037 88.733,111.167 89.495 C 106.383 93.680,98.390 102.203,95.219 106.500 C 94.847 107.004,94.305 107.679,94.014 108.000 C 93.724 108.321,93.210 108.996,92.872 109.500 C 92.534 110.004,92.181 110.501,92.087 110.605 C 91.288 111.487,88.780 115.043,87.083 117.700 C 86.992 117.844,86.645 118.364,86.313 118.856 C 85.982 119.348,85.494 120.111,85.230 120.552 C 84.966 120.994,84.545 121.669,84.295 122.052 C 84.045 122.436,83.762 122.900,83.667 123.083 C 83.571 123.267,83.271 123.754,82.999 124.167 C 82.728 124.579,82.455 125.029,82.392 125.167 C 82.330 125.304,81.849 126.169,81.322 127.088 C 80.388 128.720,79.469 130.414,79.033 131.306 C 78.914 131.550,78.752 131.862,78.673 132.000 C 77.948 133.268,74.333 140.845,74.333 141.096 C 74.333 141.169,74.191 141.533,74.017 141.906 C 73.696 142.594,73.072 144.071,72.466 145.583 C 72.283 146.042,72.027 146.642,71.898 146.917 C 71.769 147.192,71.593 147.642,71.507 147.917 C 71.421 148.192,71.151 148.942,70.908 149.583 C 70.087 151.751,68.980 154.913,68.836 155.500 C 68.681 156.130,68.308 157.255,67.812 158.587 C 67.640 159.047,67.497 159.572,67.493 159.753 C 67.489 159.935,67.370 160.383,67.230 160.750 C 67.090 161.117,66.871 161.829,66.745 162.333 C 66.284 164.170,65.983 165.272,65.661 166.295 C 65.481 166.870,65.334 167.508,65.334 167.712 C 65.335 167.916,65.224 168.421,65.088 168.833 C 64.860 169.528,64.596 170.706,64.157 173.000 C 64.060 173.504,63.908 174.217,63.818 174.583 C 63.729 174.950,63.579 175.737,63.485 176.333 C 63.392 176.929,63.206 177.880,63.074 178.446 C 62.941 179.012,62.754 180.234,62.659 181.162 C 62.564 182.089,62.408 183.051,62.313 183.299 C 62.218 183.547,62.072 184.650,61.988 185.750 C 61.904 186.850,61.755 188.012,61.658 188.333 C 61.561 188.654,61.414 190.154,61.332 191.667 C 61.249 193.179,61.066 195.352,60.924 196.495 C 60.562 199.417,60.556 214.911,60.916 218.083 C 61.051 219.275,61.206 221.225,61.261 222.417 C 61.316 223.608,61.505 225.406,61.681 226.411 C 61.856 227.416,62.000 228.626,62.000 229.101 C 62.000 229.575,62.141 230.665,62.314 231.523 C 62.487 232.381,62.680 233.637,62.743 234.313 C 62.806 234.989,62.933 235.739,63.024 235.980 C 63.116 236.220,63.260 237.025,63.345 237.770 C 63.429 238.514,63.603 239.376,63.731 239.686 C 63.859 239.996,64.017 240.873,64.083 241.635 L 64.203 243.020 63.049 244.219 C 62.414 244.878,61.609 245.867,61.258 246.417 C 60.908 246.967,60.482 247.620,60.311 247.868 C 60.140 248.117,60.000 248.417,59.999 248.535 C 59.998 248.653,59.879 248.975,59.734 249.250 C 59.051 250.542,58.783 252.025,58.717 254.882 C 58.647 257.867,58.622 257.709,59.673 260.917 C 59.853 261.467,60.000 262.108,60.000 262.342 C 60.000 262.575,60.080 262.846,60.177 262.944 C 60.275 263.041,60.494 263.638,60.665 264.269 C 61.174 266.147,61.489 267.175,62.246 269.417 C 62.401 269.875,62.591 270.599,62.668 271.026 C 62.745 271.452,62.926 272.030,63.071 272.309 C 63.215 272.588,63.333 272.952,63.333 273.117 C 63.333 273.398,63.741 274.736,64.288 276.250 C 64.420 276.617,64.627 277.292,64.747 277.750 C 64.868 278.208,65.046 278.808,65.143 279.083 C 65.535 280.193,65.874 281.297,66.088 282.167 C 66.212 282.671,66.438 283.458,66.591 283.917 C 66.743 284.375,66.943 284.975,67.035 285.250 C 67.126 285.525,67.302 286.125,67.425 286.583 C 67.663 287.465,68.063 288.752,68.357 289.583 C 68.454 289.858,68.634 290.458,68.757 290.917 C 68.879 291.375,69.093 292.050,69.233 292.417 C 69.372 292.783,69.489 293.244,69.493 293.440 C 69.497 293.636,69.648 294.124,69.830 294.523 C 70.011 294.923,70.161 295.399,70.163 295.580 C 70.165 295.762,70.307 296.287,70.478 296.747 C 70.990 298.121,71.500 299.792,71.506 300.115 C 71.509 300.281,71.656 300.717,71.833 301.083 C 72.010 301.450,72.158 301.924,72.161 302.136 C 72.164 302.348,72.306 302.873,72.477 303.302 C 72.648 303.732,72.865 304.383,72.959 304.750 C 73.053 305.117,73.205 305.642,73.298 305.917 C 73.558 306.693,74.097 308.457,74.496 309.833 C 74.695 310.521,74.936 311.308,75.032 311.583 C 75.128 311.858,75.341 312.571,75.506 313.167 C 75.670 313.762,75.883 314.475,75.979 314.750 C 76.297 315.663,76.687 316.906,76.920 317.750 C 77.047 318.208,77.269 318.958,77.415 319.417 C 77.560 319.875,77.833 320.775,78.021 321.417 C 78.209 322.058,78.439 322.808,78.532 323.083 C 78.625 323.358,78.801 323.958,78.924 324.417 C 79.046 324.875,79.260 325.550,79.399 325.917 C 79.538 326.283,79.655 326.757,79.659 326.969 C 79.663 327.182,79.755 327.519,79.864 327.719 C 80.044 328.051,80.240 328.669,80.930 331.083 C 81.062 331.542,81.281 332.153,81.418 332.442 C 81.555 332.731,81.667 333.165,81.667 333.407 C 81.667 333.649,81.817 334.141,82.000 334.500 C 82.183 334.859,82.333 335.308,82.333 335.497 C 82.333 336.513,84.421 339.883,86.106 341.588 C 89.053 344.569,94.751 346.647,98.250 346.016 C 102.816 345.194,105.096 344.133,107.729 341.606 C 109.531 339.877,111.446 336.616,111.756 334.750 C 111.816 334.383,111.971 333.713,112.100 333.261 C 112.452 332.021,112.403 329.157,112.004 327.655 C 111.823 326.974,111.673 326.268,111.671 326.087 C 111.668 325.905,111.525 325.380,111.352 324.920 C 111.180 324.460,110.870 323.521,110.664 322.833 C 110.458 322.146,110.150 321.183,109.978 320.694 C 109.807 320.204,109.664 319.642,109.661 319.444 C 109.658 319.245,109.510 318.783,109.333 318.417 C 109.156 318.050,109.009 317.541,109.006 317.285 C 109.003 317.029,108.850 316.526,108.667 316.167 C 108.483 315.807,108.333 315.355,108.333 315.163 C 108.333 314.970,108.194 314.460,108.023 314.031 C 107.852 313.601,107.621 312.912,107.510 312.500 C 107.400 312.087,107.198 311.337,107.062 310.833 C 106.926 310.329,106.715 309.692,106.592 309.417 C 106.469 309.142,106.280 308.579,106.172 308.167 C 105.835 306.886,105.370 305.273,105.188 304.750 C 104.775 303.566,104.468 302.533,104.321 301.833 C 104.234 301.421,104.058 300.858,103.929 300.583 C 103.800 300.308,103.641 299.783,103.575 299.417 C 103.510 299.050,103.390 298.666,103.310 298.564 C 103.178 298.397,102.978 297.742,102.325 295.333 C 102.213 294.921,101.981 294.232,101.811 293.802 C 101.640 293.373,101.500 292.808,101.500 292.548 C 101.500 292.287,101.394 291.922,101.264 291.737 C 101.134 291.551,100.977 291.103,100.916 290.741 C 100.854 290.380,100.670 289.708,100.507 289.250 C 100.173 288.313,99.710 286.851,99.163 285.000 C 98.960 284.313,98.663 283.337,98.503 282.833 C 98.343 282.329,98.047 281.354,97.844 280.667 C 97.641 279.979,97.364 279.079,97.227 278.667 C 97.091 278.254,96.878 277.542,96.754 277.083 C 96.629 276.625,96.412 275.950,96.271 275.583 C 96.130 275.217,96.011 274.725,96.007 274.492 C 96.003 274.258,95.931 273.995,95.847 273.908 C 95.702 273.759,95.460 272.977,94.893 270.833 C 94.759 270.329,94.577 269.767,94.486 269.583 C 94.396 269.400,94.220 268.837,94.095 268.333 C 93.970 267.829,93.788 267.192,93.690 266.917 C 93.315 265.855,92.972 264.719,92.810 264.000 C 92.718 263.587,92.535 263.014,92.404 262.725 C 92.274 262.436,92.167 262.111,92.167 262.003 C 92.167 261.895,91.989 261.268,91.772 260.611 C 91.555 259.954,91.211 258.854,91.006 258.167 C 90.802 257.479,90.559 256.692,90.466 256.417 C 90.373 256.142,90.220 255.617,90.126 255.250 C 90.032 254.883,89.815 254.232,89.644 253.802 C 89.473 253.373,89.333 252.826,89.333 252.587 C 89.333 252.349,89.183 251.859,89.000 251.500 C 88.817 251.141,88.667 250.724,88.667 250.573 C 88.667 250.164,87.510 247.638,86.916 246.750 C 85.748 245.005,84.302 243.458,83.352 242.936 C 83.204 242.854,82.933 242.655,82.750 242.493 C 81.671 241.540,78.584 240.325,76.390 239.990 C 74.829 239.752,74.683 239.627,74.505 238.368 C 74.424 237.795,74.246 236.971,74.110 236.538 C 73.974 236.105,73.819 235.211,73.765 234.552 C 73.710 233.893,73.585 233.143,73.487 232.885 C 73.388 232.628,73.237 231.742,73.151 230.917 C 73.065 230.092,72.891 228.892,72.764 228.250 C 72.637 227.608,72.484 226.333,72.424 225.417 C 72.363 224.500,72.210 223.075,72.084 222.250 C 71.297 217.117,71.258 197.385,72.025 192.917 C 72.119 192.367,72.299 190.829,72.425 189.500 C 72.631 187.311,72.859 185.636,73.344 182.750 C 73.437 182.200,73.615 181.015,73.740 180.116 C 73.865 179.217,74.050 178.280,74.152 178.033 C 74.254 177.786,74.402 177.096,74.481 176.500 C 74.609 175.534,74.795 174.670,75.360 172.417 C 75.452 172.050,75.623 171.262,75.739 170.667 C 75.856 170.071,76.075 169.224,76.226 168.786 C 76.377 168.347,76.500 167.844,76.500 167.667 C 76.500 167.490,76.650 166.965,76.833 166.500 C 77.017 166.035,77.169 165.451,77.172 165.202 C 77.175 164.953,77.323 164.450,77.500 164.083 C 77.677 163.717,77.825 163.207,77.828 162.952 C 77.831 162.696,77.983 162.193,78.167 161.833 C 78.350 161.474,78.501 161.046,78.501 160.882 C 78.502 160.718,78.770 159.833,79.095 158.917 C 79.421 158.000,79.762 156.950,79.853 156.583 C 79.944 156.217,80.115 155.767,80.233 155.583 C 80.351 155.400,80.500 155.025,80.565 154.750 C 80.710 154.132,81.295 152.569,81.604 151.974 C 81.730 151.731,81.833 151.428,81.833 151.301 C 81.833 151.174,81.983 150.776,82.167 150.417 C 82.350 150.057,82.500 149.690,82.500 149.601 C 82.500 149.512,82.644 149.134,82.821 148.761 C 82.997 148.388,83.339 147.596,83.580 147.000 C 83.822 146.404,84.168 145.600,84.350 145.212 C 84.532 144.825,84.824 144.187,84.999 143.795 C 85.538 142.590,88.013 137.432,88.180 137.167 C 88.267 137.029,88.487 136.617,88.670 136.250 C 88.853 135.883,89.175 135.283,89.386 134.917 C 89.598 134.550,90.032 133.762,90.352 133.167 C 90.672 132.571,91.054 131.896,91.202 131.667 C 91.350 131.438,91.684 130.862,91.944 130.387 C 92.658 129.084,94.381 126.280,94.621 126.030 C 94.738 125.909,94.833 125.748,94.833 125.672 C 94.833 125.596,95.361 124.758,96.006 123.809 C 96.651 122.860,97.455 121.671,97.794 121.167 C 99.596 118.482,103.889 112.938,107.022 109.250 C 111.602 103.858,119.297 96.411,124.328 92.500 C 124.859 92.087,125.546 91.540,125.855 91.283 C 127.369 90.025,130.077 88.041,132.667 86.292 C 133.171 85.951,133.889 85.465,134.262 85.211 C 135.087 84.650,135.155 84.607,137.292 83.297 C 140.208 81.510,141.912 80.506,142.034 80.503 C 142.099 80.501,142.416 80.321,142.738 80.102 C 143.280 79.735,149.836 76.452,151.750 75.590 C 152.208 75.383,152.942 75.054,153.379 74.857 C 153.817 74.661,154.259 74.500,154.361 74.500 C 154.538 74.500,155.282 74.183,156.750 73.484 C 157.117 73.309,157.530 73.166,157.669 73.166 C 157.808 73.166,158.183 73.027,158.502 72.856 C 158.822 72.684,159.346 72.488,159.667 72.420 C 159.987 72.351,160.438 72.197,160.667 72.077 C 161.143 71.829,162.366 71.413,163.583 71.086 C 164.042 70.963,164.717 70.750,165.083 70.612 C 166.270 70.168,167.998 69.667,168.345 69.667 C 168.531 69.667,168.902 69.553,169.170 69.415 C 169.437 69.277,170.090 69.096,170.620 69.013 C 171.150 68.931,171.883 68.747,172.250 68.606 C 172.617 68.464,173.104 68.347,173.333 68.345 C 173.563 68.343,174.387 68.193,175.167 68.012 C 177.165 67.546,178.241 67.336,179.583 67.148 C 180.225 67.058,181.275 66.871,181.917 66.731 C 182.558 66.592,183.955 66.411,185.020 66.328 C 186.085 66.246,187.285 66.100,187.686 66.004 C 190.007 65.451,208.387 65.441,210.583 65.991 C 210.950 66.083,212.206 66.237,213.375 66.333 C 214.544 66.429,215.706 66.588,215.958 66.686 C 216.210 66.784,217.147 66.929,218.039 67.008 C 218.931 67.087,219.811 67.232,219.993 67.330 C 220.175 67.427,220.894 67.579,221.591 67.668 C 222.287 67.756,223.192 67.942,223.601 68.081 C 224.010 68.220,224.502 68.333,224.694 68.333 C 225.086 68.333,227.315 68.876,228.583 69.280 C 229.042 69.426,229.829 69.639,230.333 69.753 C 230.838 69.867,231.475 70.036,231.750 70.129 C 233.348 70.670,234.003 70.877,234.750 71.078 C 235.208 71.201,236.108 71.501,236.750 71.744 C 237.392 71.987,238.277 72.289,238.718 72.414 C 239.158 72.539,239.608 72.712,239.718 72.798 C 239.827 72.884,240.142 73.005,240.417 73.067 C 240.692 73.130,241.217 73.321,241.583 73.492 C 241.950 73.663,242.662 73.969,243.167 74.171 C 244.697 74.787,245.553 75.164,246.200 75.506 C 246.539 75.686,246.896 75.833,246.995 75.833 C 247.158 75.833,249.631 76.950,250.417 77.379 C 250.600 77.479,251.612 78.002,252.667 78.543 C 253.721 79.083,254.883 79.699,255.250 79.912 C 255.617 80.125,256.233 80.462,256.620 80.662 C 257.007 80.862,257.570 81.189,257.870 81.389 C 258.171 81.589,258.604 81.846,258.833 81.959 C 259.063 82.072,259.400 82.257,259.583 82.370 C 260.540 82.962,262.363 84.129,263.214 84.694 C 263.744 85.045,264.210 85.333,264.249 85.333 C 264.289 85.333,264.643 85.560,265.036 85.836 C 265.429 86.113,266.162 86.617,266.667 86.957 C 269.893 89.129,276.279 94.170,278.667 96.429 C 279.171 96.907,279.958 97.615,280.417 98.003 C 283.984 101.027,293.128 110.981,295.995 114.962 C 296.277 115.354,296.624 115.804,296.766 115.962 C 297.077 116.309,299.055 119.008,299.600 119.830 C 299.814 120.153,300.215 120.717,300.491 121.083 C 300.768 121.450,301.052 121.864,301.122 122.002 C 301.192 122.141,301.819 123.116,302.515 124.169 C 304.140 126.627,304.886 127.793,305.234 128.417 C 305.388 128.692,305.679 129.192,305.882 129.529 C 308.155 133.310,311.231 139.168,313.088 143.250 C 313.296 143.708,313.667 144.521,313.911 145.056 C 314.483 146.304,315.634 149.056,315.945 149.917 C 316.077 150.283,316.332 150.888,316.510 151.261 C 316.688 151.634,316.833 152.007,316.833 152.091 C 316.833 152.247,317.362 153.682,317.752 154.583 C 318.002 155.164,318.433 156.427,318.745 157.500 C 318.866 157.912,319.040 158.438,319.132 158.667 C 319.225 158.896,319.504 159.758,319.753 160.583 C 320.002 161.408,320.342 162.496,320.507 163.000 C 321.090 164.773,321.500 166.226,321.500 166.522 C 321.500 166.686,321.650 167.202,321.833 167.667 C 322.017 168.132,322.167 168.699,322.167 168.927 C 322.167 169.155,322.317 169.768,322.500 170.290 C 322.683 170.812,322.833 171.482,322.833 171.780 C 322.833 172.077,322.973 172.680,323.143 173.119 C 323.313 173.558,323.502 174.356,323.563 174.893 C 323.624 175.429,323.744 175.999,323.829 176.159 C 323.914 176.318,324.067 177.116,324.167 177.933 C 324.268 178.749,324.453 179.792,324.577 180.250 C 324.702 180.708,324.848 181.622,324.902 182.281 C 324.956 182.940,325.080 183.688,325.177 183.943 C 325.273 184.197,325.421 185.196,325.506 186.161 C 325.590 187.127,325.771 188.629,325.908 189.500 C 326.045 190.371,326.240 192.171,326.340 193.500 C 326.439 194.829,326.588 196.479,326.670 197.167 C 326.992 199.858,326.874 215.451,326.505 219.068 C 326.319 220.893,326.167 222.779,326.167 223.258 C 326.167 223.738,326.056 224.719,325.921 225.440 C 325.786 226.160,325.600 227.561,325.508 228.552 C 325.415 229.544,325.297 230.423,325.245 230.507 C 325.194 230.591,325.044 231.476,324.913 232.473 C 324.782 233.470,324.560 234.725,324.421 235.261 C 324.281 235.798,324.167 236.449,324.167 236.709 C 324.167 238.681,323.375 240.019,322.149 240.115 C 318.793 240.380,313.427 244.288,311.910 247.572 C 311.780 247.853,311.606 248.196,311.523 248.333 C 311.202 248.868,310.667 250.131,310.668 250.352 C 310.670 250.583,310.184 252.150,309.717 253.417 C 309.582 253.783,309.374 254.496,309.256 255.000 C 309.137 255.504,308.964 256.142,308.871 256.417 C 308.310 258.075,308.125 258.671,307.937 259.417 C 307.821 259.875,307.648 260.400,307.552 260.583 C 307.456 260.767,307.324 261.217,307.258 261.583 C 307.193 261.950,307.038 262.475,306.915 262.750 C 306.792 263.025,306.616 263.587,306.523 264.000 C 306.361 264.719,306.019 265.855,305.643 266.917 C 305.546 267.192,305.365 267.792,305.241 268.250 C 305.003 269.134,304.603 270.422,304.309 271.250 C 304.212 271.525,304.022 272.199,303.887 272.748 C 303.752 273.297,303.581 273.822,303.506 273.915 C 303.432 274.007,303.316 274.421,303.249 274.833 C 303.182 275.246,302.986 275.862,302.813 276.202 C 302.641 276.542,302.500 277.014,302.500 277.250 C 302.500 277.486,302.350 277.974,302.167 278.333 C 301.983 278.693,301.833 279.169,301.833 279.392 C 301.833 279.615,301.685 280.124,301.504 280.523 C 301.322 280.923,301.172 281.424,301.170 281.636 C 301.168 281.848,301.027 282.373,300.856 282.802 C 300.685 283.232,300.468 283.883,300.374 284.250 C 300.280 284.617,300.127 285.142,300.033 285.417 C 299.940 285.692,299.695 286.479,299.490 287.167 C 298.923 289.066,298.536 290.330,298.243 291.250 C 298.096 291.708,297.875 292.458,297.752 292.917 C 297.628 293.375,297.454 293.975,297.364 294.250 C 297.274 294.525,296.999 295.425,296.752 296.250 C 296.506 297.075,296.228 297.975,296.134 298.250 C 296.040 298.525,295.887 299.050,295.795 299.417 C 295.702 299.783,295.485 300.392,295.313 300.768 C 295.141 301.145,295.000 301.655,295.000 301.902 C 295.000 302.148,294.897 302.552,294.770 302.800 C 294.644 303.047,294.488 303.512,294.424 303.833 C 294.361 304.154,294.172 304.792,294.005 305.250 C 293.838 305.708,293.613 306.421,293.506 306.833 C 293.104 308.374,292.824 309.265,292.582 309.775 C 292.445 310.064,292.333 310.516,292.333 310.780 C 292.333 311.043,292.216 311.426,292.073 311.631 C 291.930 311.835,291.749 312.358,291.670 312.793 C 291.592 313.228,291.401 313.958,291.246 314.417 C 291.092 314.875,290.898 315.456,290.816 315.708 C 290.734 315.960,290.598 316.373,290.513 316.625 C 290.429 316.877,290.287 317.383,290.198 317.750 C 290.109 318.117,289.961 318.642,289.869 318.917 C 289.777 319.192,289.576 319.792,289.422 320.250 C 289.268 320.708,289.072 321.413,288.988 321.816 C 288.904 322.218,288.767 322.631,288.685 322.732 C 288.603 322.834,288.445 323.363,288.333 323.909 C 288.221 324.455,288.032 325.130,287.913 325.409 C 286.729 328.189,286.730 333.230,287.914 335.917 C 288.709 337.720,288.975 338.223,289.762 339.417 C 291.042 341.356,292.965 343.104,294.833 344.026 C 295.063 344.139,295.362 344.318,295.500 344.424 C 295.825 344.674,297.169 345.139,298.353 345.411 C 298.868 345.529,299.550 345.712,299.870 345.818 C 300.753 346.109,303.925 346.076,304.917 345.765 C 305.375 345.621,305.976 345.503,306.252 345.502 C 306.529 345.501,307.035 345.350,307.377 345.167 C 307.719 344.983,308.114 344.833,308.255 344.833 C 309.465 344.833,314.095 341.202,314.949 339.583 C 315.094 339.308,315.269 339.046,315.337 339.000 C 315.573 338.842,317.000 335.796,317.006 335.440 C 317.009 335.244,317.156 334.783,317.333 334.417 C 317.510 334.050,317.660 333.563,317.667 333.333 C 317.673 333.104,317.823 332.617,318.000 332.250 C 318.177 331.883,318.325 331.410,318.328 331.198 C 318.331 330.985,318.473 330.460,318.644 330.031 C 318.815 329.601,319.032 328.950,319.126 328.583 C 319.220 328.217,319.372 327.692,319.464 327.417 C 319.556 327.142,319.758 326.542,319.912 326.083 C 320.067 325.625,320.267 324.883,320.358 324.434 C 320.449 323.986,320.622 323.461,320.742 323.268 C 320.862 323.075,321.009 322.593,321.067 322.197 C 321.126 321.801,321.278 321.313,321.404 321.113 C 321.531 320.913,321.688 320.412,321.753 320.000 C 321.819 319.587,321.955 319.100,322.057 318.917 C 322.159 318.733,322.331 318.208,322.440 317.750 C 322.631 316.946,323.125 315.286,323.481 314.250 C 323.919 312.976,324.214 312.010,324.421 311.167 C 324.623 310.347,324.758 309.907,325.369 308.083 C 325.461 307.808,325.611 307.283,325.702 306.917 C 325.794 306.550,326.010 305.874,326.184 305.413 C 326.358 304.953,326.500 304.455,326.500 304.307 C 326.500 304.158,326.648 303.709,326.830 303.310 C 327.011 302.910,327.161 302.395,327.163 302.164 C 327.165 301.934,327.317 301.465,327.500 301.123 C 327.683 300.781,327.833 300.332,327.833 300.126 C 327.833 299.753,328.258 298.349,328.855 296.747 C 329.026 296.287,329.167 295.738,329.167 295.528 C 329.167 295.317,329.306 294.794,329.476 294.364 C 329.645 293.935,329.943 293.058,330.136 292.417 C 330.329 291.775,330.608 290.875,330.754 290.417 C 330.901 289.958,331.089 289.266,331.172 288.877 C 331.255 288.489,331.437 287.949,331.578 287.677 C 331.718 287.406,331.833 287.069,331.833 286.928 C 331.833 286.686,332.176 285.507,332.829 283.500 C 332.993 282.996,333.327 281.908,333.572 281.083 C 334.523 277.874,334.728 277.224,335.026 276.469 C 335.195 276.040,335.333 275.493,335.333 275.254 C 335.333 275.015,335.483 274.526,335.667 274.167 C 335.850 273.807,336.000 273.325,336.000 273.096 C 336.000 272.866,336.106 272.432,336.235 272.131 C 336.364 271.830,336.670 270.908,336.913 270.083 C 337.157 269.258,337.473 268.246,337.614 267.833 C 337.755 267.421,337.932 266.783,338.007 266.417 C 338.081 266.050,338.260 265.525,338.403 265.250 C 338.547 264.975,338.665 264.576,338.666 264.364 C 338.666 264.152,338.806 263.627,338.977 263.198 C 339.148 262.768,339.378 262.079,339.488 261.667 C 339.598 261.254,339.881 260.279,340.117 259.500 C 340.661 257.704,340.874 252.717,340.442 251.881 C 340.306 251.619,340.141 251.108,340.075 250.744 C 339.649 248.410,336.813 244.278,334.785 243.038 C 334.215 242.690,334.065 242.165,334.305 241.360 C 334.405 241.025,334.534 240.308,334.592 239.769 C 334.649 239.229,334.801 238.442,334.930 238.019 C 335.058 237.596,335.207 236.762,335.262 236.167 C 335.317 235.571,335.463 234.708,335.586 234.250 C 335.709 233.792,335.890 232.590,335.989 231.579 C 336.088 230.568,336.245 229.481,336.339 229.162 C 336.433 228.844,336.586 227.535,336.680 226.253 C 336.773 224.971,336.926 223.583,337.020 223.169 C 337.114 222.755,337.256 220.954,337.334 219.167 C 337.413 217.379,337.572 213.798,337.687 211.208 C 337.855 207.466,337.856 205.788,337.694 203.041 C 337.582 201.139,337.419 198.008,337.331 196.083 C 337.243 194.158,337.094 192.133,336.999 191.583 C 336.904 191.033,336.753 189.595,336.664 188.387 C 336.575 187.179,336.390 185.716,336.253 185.137 C 336.117 184.557,336.004 183.746,336.004 183.333 C 336.003 182.648,335.772 181.239,335.062 177.583 C 334.919 176.850,334.734 175.762,334.651 175.167 C 334.567 174.571,334.391 173.708,334.258 173.250 C 334.126 172.792,333.947 172.004,333.862 171.500 C 333.681 170.431,333.229 168.503,332.964 167.667 C 332.862 167.346,332.684 166.633,332.568 166.083 C 332.452 165.533,332.233 164.633,332.081 164.083 C 331.631 162.452,331.146 160.784,330.967 160.250 C 330.875 159.975,330.698 159.375,330.575 158.917 C 330.332 158.018,329.928 156.720,329.641 155.917 C 329.543 155.642,329.362 155.079,329.239 154.667 C 328.891 153.498,328.477 152.298,328.233 151.750 C 327.958 151.131,327.556 150.014,327.214 148.917 C 327.072 148.458,326.852 147.935,326.727 147.755 C 326.602 147.574,326.500 147.274,326.499 147.088 C 326.498 146.902,326.349 146.525,326.167 146.250 C 325.985 145.975,325.835 145.646,325.834 145.518 C 325.834 145.391,325.691 144.978,325.516 144.602 C 325.342 144.225,324.847 143.092,324.416 142.083 C 323.252 139.359,322.992 138.776,322.820 138.500 C 322.735 138.362,322.623 138.137,322.571 138.000 C 322.402 137.546,321.648 135.921,321.489 135.667 C 321.403 135.529,321.253 135.229,321.156 135.000 C 320.956 134.528,319.682 132.005,319.010 130.750 C 318.764 130.292,318.312 129.429,318.004 128.833 C 317.697 128.237,317.353 127.638,317.241 127.500 C 317.129 127.362,316.817 126.837,316.547 126.333 C 314.922 123.301,309.678 115.072,308.104 113.083 C 307.814 112.717,307.356 112.079,307.087 111.667 C 306.550 110.843,306.000 110.134,302.607 105.887 C 296.449 98.181,288.579 90.298,280.774 84.020 C 278.461 82.160,275.200 79.667,275.079 79.667 C 275.045 79.667,274.545 79.309,273.967 78.872 C 272.977 78.123,270.316 76.337,268.083 74.923 C 267.533 74.575,266.821 74.123,266.500 73.919 C 264.814 72.845,264.189 72.470,263.583 72.166 C 263.217 71.983,262.654 71.672,262.333 71.476 C 260.849 70.570,253.913 67.023,251.667 66.021 C 250.979 65.715,250.028 65.285,249.552 65.066 C 249.076 64.846,248.587 64.667,248.464 64.667 C 248.341 64.667,248.093 64.564,247.912 64.439 C 247.731 64.314,247.396 64.158,247.167 64.093 C 246.938 64.028,246.450 63.839,246.083 63.673 C 245.717 63.506,245.154 63.280,244.833 63.169 C 244.512 63.058,243.762 62.783,243.167 62.557 C 242.571 62.331,241.858 62.085,241.583 62.010 C 241.308 61.935,240.858 61.752,240.583 61.604 C 240.308 61.456,239.896 61.334,239.667 61.333 C 239.438 61.332,239.025 61.182,238.750 61.000 C 238.475 60.818,238.100 60.668,237.917 60.668 C 237.614 60.667,236.802 60.430,234.667 59.721 C 234.254 59.584,233.515 59.401,233.023 59.314 C 232.532 59.227,231.917 59.046,231.657 58.911 C 231.396 58.777,230.992 58.667,230.759 58.667 C 230.526 58.667,229.903 58.522,229.376 58.345 C 228.848 58.169,228.079 57.976,227.667 57.917 C 227.254 57.858,226.579 57.707,226.167 57.581 C 225.754 57.454,225.042 57.303,224.583 57.245 C 224.125 57.187,223.412 57.039,223.000 56.915 C 222.588 56.791,221.762 56.640,221.167 56.581 C 220.571 56.521,219.666 56.367,219.155 56.239 C 218.645 56.111,217.557 55.960,216.739 55.903 C 215.920 55.845,214.838 55.699,214.333 55.578 C 213.829 55.456,212.479 55.309,211.333 55.251 C 210.188 55.192,208.222 55.037,206.966 54.906 C 204.469 54.644,193.824 54.599,192.167 54.843 " stroke="none" fill="#fb0404" fill-rule="evenodd"></path><path id="path2" d="M197.051 54.625 C 198.225 54.653,200.100 54.653,201.218 54.624 C 202.336 54.596,201.375 54.572,199.083 54.572 C 196.792 54.572,195.877 54.596,197.051 54.625 M208.708 55.115 C 208.869 55.157,209.131 55.157,209.292 55.115 C 209.452 55.073,209.321 55.039,209.000 55.039 C 208.679 55.039,208.548 55.073,208.708 55.115 M185.708 55.282 C 185.869 55.323,186.131 55.323,186.292 55.282 C 186.452 55.240,186.321 55.205,186.000 55.205 C 185.679 55.205,185.548 55.240,185.708 55.282 M211.792 55.284 C 211.998 55.324,212.335 55.324,212.542 55.284 C 212.748 55.245,212.579 55.212,212.167 55.212 C 211.754 55.212,211.585 55.245,211.792 55.284 M180.542 55.948 C 180.702 55.990,180.965 55.990,181.125 55.948 C 181.285 55.906,181.154 55.872,180.833 55.872 C 180.512 55.872,180.381 55.906,180.542 55.948 M195.965 65.624 C 196.541 65.656,197.441 65.656,197.965 65.623 C 198.488 65.590,198.017 65.563,196.917 65.564 C 195.817 65.564,195.388 65.591,195.965 65.624 M200.458 65.623 C 200.940 65.657,201.727 65.657,202.208 65.623 C 202.690 65.589,202.296 65.562,201.333 65.562 C 200.371 65.562,199.977 65.589,200.458 65.623 M190.292 65.784 C 190.498 65.824,190.835 65.824,191.042 65.784 C 191.248 65.745,191.079 65.712,190.667 65.712 C 190.254 65.712,190.085 65.745,190.292 65.784 M207.377 65.786 C 207.631 65.825,208.006 65.824,208.211 65.784 C 208.416 65.744,208.208 65.713,207.750 65.714 C 207.292 65.716,207.124 65.748,207.377 65.786 M111.658 88.958 L 111.083 89.583 111.708 89.009 C 112.290 88.474,112.410 88.333,112.283 88.333 C 112.255 88.333,111.974 88.615,111.658 88.958 M110.240 90.208 L 109.750 90.750 110.292 90.260 C 110.590 89.991,110.833 89.748,110.833 89.719 C 110.833 89.590,110.696 89.703,110.240 90.208 M288.160 90.375 C 288.850 91.111,289.000 91.243,289.000 91.118 C 289.000 91.091,288.644 90.735,288.208 90.326 L 287.417 89.583 288.160 90.375 M107.491 92.792 L 106.917 93.417 107.542 92.842 C 108.123 92.308,108.243 92.167,108.116 92.167 C 108.088 92.167,107.807 92.448,107.491 92.792 M291.750 93.833 C 292.201 94.292,292.608 94.667,292.654 94.667 C 292.700 94.667,292.368 94.292,291.917 93.833 C 291.465 93.375,291.058 93.000,291.013 93.000 C 290.967 93.000,291.299 93.375,291.750 93.833 M278.167 96.052 C 278.167 96.081,278.410 96.325,278.708 96.594 L 279.250 97.083 278.760 96.542 C 278.304 96.037,278.167 95.923,278.167 96.052 M295.993 98.208 C 296.684 98.944,296.833 99.077,296.833 98.951 C 296.833 98.925,296.477 98.568,296.042 98.160 L 295.250 97.417 295.993 98.208 M282.333 99.917 C 282.644 100.237,282.936 100.500,282.982 100.500 C 283.028 100.500,282.811 100.237,282.500 99.917 C 282.189 99.596,281.897 99.333,281.851 99.333 C 281.805 99.333,282.022 99.596,282.333 99.917 M100.409 100.208 L 99.750 100.917 100.458 100.258 C 101.117 99.645,101.243 99.500,101.117 99.500 C 101.090 99.500,100.771 99.819,100.409 100.208 M115.575 100.208 L 114.917 100.917 115.625 100.258 C 116.284 99.645,116.410 99.500,116.284 99.500 C 116.257 99.500,115.938 99.819,115.575 100.208 M297.500 99.885 C 297.500 99.914,297.744 100.158,298.042 100.427 L 298.583 100.917 298.094 100.375 C 297.638 99.870,297.500 99.757,297.500 99.885 M286.167 103.750 C 286.942 104.529,287.613 105.167,287.659 105.167 C 287.705 105.167,287.108 104.529,286.333 103.750 C 285.558 102.971,284.887 102.333,284.841 102.333 C 284.795 102.333,285.392 102.971,286.167 103.750 M288.750 106.500 C 289.108 106.867,289.438 107.167,289.484 107.167 C 289.530 107.167,289.275 106.867,288.917 106.500 C 288.559 106.133,288.228 105.833,288.182 105.833 C 288.137 105.833,288.392 106.133,288.750 106.500 M290.167 108.083 C 290.478 108.404,290.770 108.667,290.815 108.667 C 290.861 108.667,290.644 108.404,290.333 108.083 C 290.022 107.763,289.730 107.500,289.685 107.500 C 289.639 107.500,289.856 107.763,290.167 108.083 M80.860 153.757 C 80.581 154.370,80.634 154.501,80.936 153.944 C 81.077 153.683,81.162 153.439,81.123 153.401 C 81.085 153.363,80.967 153.523,80.860 153.757 M73.705 180.833 C 73.705 181.154,73.740 181.285,73.782 181.125 C 73.823 180.965,73.823 180.702,73.782 180.542 C 73.740 180.381,73.705 180.512,73.705 180.833 M336.705 189.333 C 336.705 189.654,336.740 189.785,336.782 189.625 C 336.823 189.465,336.823 189.202,336.782 189.042 C 336.740 188.881,336.705 189.012,336.705 189.333 M72.372 190.000 C 72.372 190.321,72.406 190.452,72.448 190.292 C 72.490 190.131,72.490 189.869,72.448 189.708 C 72.406 189.548,72.372 189.679,72.372 190.000 M61.212 192.667 C 61.212 193.079,61.245 193.248,61.284 193.042 C 61.324 192.835,61.324 192.498,61.284 192.292 C 61.245 192.085,61.212 192.254,61.212 192.667 M337.209 193.250 C 337.211 193.617,337.245 193.747,337.285 193.540 C 337.324 193.332,337.323 193.032,337.281 192.873 C 337.239 192.714,337.207 192.883,337.209 193.250 M326.209 193.583 C 326.211 193.950,326.245 194.080,326.285 193.873 C 326.324 193.666,326.323 193.366,326.281 193.206 C 326.239 193.047,326.207 193.217,326.209 193.583 M71.875 194.083 C 71.877 194.450,71.911 194.580,71.951 194.373 C 71.991 194.166,71.990 193.866,71.948 193.706 C 71.906 193.547,71.874 193.717,71.875 194.083 M326.542 196.750 C 326.544 197.117,326.578 197.247,326.618 197.040 C 326.658 196.832,326.656 196.532,326.615 196.373 C 326.573 196.214,326.540 196.383,326.542 196.750 M337.381 197.250 C 337.382 197.708,337.415 197.876,337.453 197.623 C 337.491 197.369,337.490 196.994,337.451 196.789 C 337.411 196.584,337.380 196.792,337.381 197.250 M71.720 197.667 C 71.720 198.262,71.750 198.506,71.787 198.208 C 71.824 197.910,71.824 197.423,71.787 197.125 C 71.750 196.827,71.720 197.071,71.720 197.667 M326.720 199.000 C 326.720 199.596,326.750 199.840,326.787 199.542 C 326.824 199.244,326.824 198.756,326.787 198.458 C 326.750 198.160,326.720 198.404,326.720 199.000 M337.550 200.500 C 337.550 201.004,337.581 201.210,337.619 200.958 C 337.658 200.706,337.658 200.294,337.619 200.042 C 337.581 199.790,337.550 199.996,337.550 200.500 M71.545 201.333 C 71.545 201.746,71.578 201.915,71.618 201.708 C 71.657 201.502,71.657 201.165,71.618 200.958 C 71.578 200.752,71.545 200.921,71.545 201.333 M337.709 203.250 C 337.711 203.617,337.745 203.747,337.785 203.540 C 337.824 203.332,337.823 203.032,337.781 202.873 C 337.739 202.714,337.707 202.883,337.709 203.250 M60.573 207.417 C 60.573 209.800,60.596 210.752,60.625 209.532 C 60.653 208.312,60.653 206.362,60.624 205.198 C 60.596 204.035,60.573 205.033,60.573 207.417 M71.405 207.333 C 71.405 209.487,71.429 210.369,71.458 209.292 C 71.487 208.215,71.487 206.452,71.458 205.375 C 71.429 204.298,71.405 205.179,71.405 207.333 M326.881 207.417 C 326.882 207.875,326.915 208.043,326.953 207.789 C 326.991 207.536,326.990 207.161,326.951 206.956 C 326.911 206.751,326.880 206.958,326.881 207.417 M337.721 211.250 C 337.722 211.892,337.752 212.134,337.788 211.788 C 337.824 211.442,337.824 210.917,337.787 210.621 C 337.750 210.325,337.721 210.608,337.721 211.250 M71.545 213.000 C 71.545 213.412,71.578 213.581,71.618 213.375 C 71.657 213.169,71.657 212.831,71.618 212.625 C 71.578 212.419,71.545 212.588,71.545 213.000 M337.552 214.750 C 337.553 215.300,337.584 215.505,337.621 215.205 C 337.658 214.906,337.657 214.456,337.619 214.205 C 337.581 213.955,337.551 214.200,337.552 214.750 M326.709 215.917 C 326.711 216.283,326.745 216.414,326.785 216.206 C 326.824 215.999,326.823 215.699,326.781 215.540 C 326.739 215.380,326.707 215.550,326.709 215.917 M71.718 217.083 C 71.719 217.633,71.750 217.838,71.787 217.539 C 71.825 217.239,71.824 216.789,71.786 216.539 C 71.748 216.288,71.717 216.533,71.718 217.083 M337.381 217.583 C 337.382 218.042,337.415 218.209,337.453 217.956 C 337.491 217.703,337.490 217.328,337.451 217.123 C 337.411 216.918,337.380 217.125,337.381 217.583 M326.539 217.833 C 326.539 218.154,326.573 218.285,326.615 218.125 C 326.657 217.965,326.657 217.702,326.615 217.542 C 326.573 217.381,326.539 217.512,326.539 217.833 M60.872 218.667 C 60.872 218.987,60.906 219.119,60.948 218.958 C 60.990 218.798,60.990 218.535,60.948 218.375 C 60.906 218.215,60.872 218.346,60.872 218.667 M61.042 220.250 C 61.044 220.617,61.078 220.747,61.118 220.540 C 61.158 220.332,61.156 220.032,61.115 219.873 C 61.073 219.714,61.040 219.883,61.042 220.250 M71.872 220.667 C 71.872 220.987,71.906 221.119,71.948 220.958 C 71.990 220.798,71.990 220.535,71.948 220.375 C 71.906 220.215,71.872 220.346,71.872 220.667 M61.205 222.167 C 61.205 222.487,61.240 222.619,61.282 222.458 C 61.323 222.298,61.323 222.035,61.282 221.875 C 61.240 221.715,61.205 221.846,61.205 222.167 M326.039 224.000 C 326.039 224.321,326.073 224.452,326.115 224.292 C 326.157 224.131,326.157 223.869,326.115 223.708 C 326.073 223.548,326.039 223.679,326.039 224.000 M74.667 239.316 C 74.667 239.527,75.324 239.898,75.459 239.764 C 75.512 239.710,75.473 239.667,75.373 239.667 C 75.273 239.667,75.073 239.549,74.929 239.405 C 74.785 239.261,74.667 239.221,74.667 239.316 M334.539 240.167 C 334.539 240.487,334.573 240.619,334.615 240.458 C 334.657 240.298,334.657 240.035,334.615 239.875 C 334.573 239.715,334.539 239.846,334.539 240.167 M335.167 243.219 C 335.167 243.248,335.410 243.491,335.708 243.760 L 336.250 244.250 335.760 243.708 C 335.304 243.203,335.167 243.090,335.167 243.219 M58.563 255.167 C 58.563 256.221,58.590 256.652,58.623 256.125 C 58.656 255.598,58.656 254.735,58.623 254.208 C 58.590 253.681,58.563 254.112,58.563 255.167 M340.726 255.250 C 340.725 256.075,340.754 256.434,340.788 256.047 C 340.823 255.660,340.824 254.985,340.789 254.547 C 340.755 254.109,340.726 254.425,340.726 255.250 M286.889 330.667 C 286.889 331.354,286.919 331.635,286.955 331.292 C 286.991 330.948,286.991 330.385,286.955 330.042 C 286.919 329.698,286.889 329.979,286.889 330.667 M112.387 330.667 C 112.387 331.262,112.417 331.506,112.454 331.208 C 112.491 330.910,112.491 330.423,112.454 330.125 C 112.417 329.827,112.387 330.071,112.387 330.667 M301.208 346.119 C 301.460 346.158,301.873 346.158,302.125 346.119 C 302.377 346.081,302.171 346.050,301.667 346.050 C 301.162 346.050,300.956 346.081,301.208 346.119 " stroke="none" fill="#c60f0f" fill-rule="evenodd"></path><path id="path3" d="M193.958 54.618 C 194.165 54.657,194.502 54.657,194.708 54.618 C 194.915 54.578,194.746 54.545,194.333 54.545 C 193.921 54.545,193.752 54.578,193.958 54.618 M203.458 54.618 C 203.665 54.657,204.002 54.657,204.208 54.618 C 204.415 54.578,204.246 54.545,203.833 54.545 C 203.421 54.545,203.252 54.578,203.458 54.618 M187.958 55.118 C 188.165 55.157,188.502 55.157,188.708 55.118 C 188.915 55.078,188.746 55.045,188.333 55.045 C 187.921 55.045,187.752 55.078,187.958 55.118 M209.877 55.120 C 210.131 55.158,210.506 55.157,210.711 55.117 C 210.916 55.078,210.708 55.046,210.250 55.048 C 209.792 55.049,209.624 55.081,209.877 55.120 M242.500 62.250 C 242.729 62.381,242.992 62.488,243.083 62.488 C 243.175 62.488,243.063 62.381,242.833 62.250 C 242.604 62.119,242.342 62.012,242.250 62.012 C 242.158 62.012,242.271 62.119,242.500 62.250 M192.047 65.789 C 192.485 65.824,193.160 65.823,193.547 65.788 C 193.934 65.754,193.575 65.725,192.750 65.726 C 191.925 65.726,191.609 65.755,192.047 65.789 M204.880 65.789 C 205.318 65.824,205.993 65.823,206.380 65.788 C 206.767 65.754,206.408 65.725,205.583 65.726 C 204.758 65.726,204.442 65.755,204.880 65.789 M184.792 66.451 C 184.998 66.491,185.335 66.491,185.542 66.451 C 185.748 66.411,185.579 66.379,185.167 66.379 C 184.754 66.379,184.585 66.411,184.792 66.451 M212.960 66.451 C 213.168 66.491,213.468 66.490,213.627 66.448 C 213.786 66.406,213.617 66.374,213.250 66.375 C 212.883 66.377,212.753 66.411,212.960 66.451 M180.208 67.115 C 180.369 67.157,180.631 67.157,180.792 67.115 C 180.952 67.073,180.821 67.039,180.500 67.039 C 180.179 67.039,180.048 67.073,180.208 67.115 M217.542 67.115 C 217.702 67.157,217.965 67.157,218.125 67.115 C 218.285 67.073,218.154 67.039,217.833 67.039 C 217.512 67.039,217.381 67.073,217.542 67.115 M169.333 69.417 C 169.104 69.548,168.992 69.655,169.083 69.655 C 169.175 69.655,169.438 69.548,169.667 69.417 C 169.896 69.286,170.008 69.178,169.917 69.178 C 169.825 69.178,169.563 69.286,169.333 69.417 M124.417 78.604 C 124.117 78.859,124.056 78.961,124.264 78.857 C 124.569 78.705,125.142 78.157,124.979 78.173 C 124.945 78.176,124.692 78.370,124.417 78.604 M285.167 87.552 C 285.167 87.581,285.410 87.825,285.708 88.094 L 286.250 88.583 285.760 88.042 C 285.304 87.537,285.167 87.423,285.167 87.552 M129.160 88.845 L 128.583 89.357 129.208 88.909 C 129.761 88.513,129.940 88.333,129.785 88.333 C 129.759 88.333,129.478 88.564,129.160 88.845 M111.324 89.125 L 110.750 89.750 111.375 89.176 C 111.957 88.641,112.077 88.500,111.949 88.500 C 111.922 88.500,111.640 88.781,111.324 89.125 M286.833 89.083 C 287.144 89.404,287.436 89.667,287.482 89.667 C 287.528 89.667,287.311 89.404,287.000 89.083 C 286.689 88.763,286.397 88.500,286.351 88.500 C 286.305 88.500,286.522 88.763,286.833 89.083 M109.078 91.208 L 108.083 92.250 109.125 91.255 C 109.698 90.708,110.167 90.239,110.167 90.214 C 110.167 90.090,110.002 90.241,109.078 91.208 M289.493 91.542 C 290.184 92.278,290.333 92.410,290.333 92.285 C 290.333 92.258,289.977 91.902,289.542 91.493 L 288.750 90.750 289.493 91.542 M106.161 93.958 L 105.250 94.917 106.208 94.006 C 107.099 93.159,107.243 93.000,107.119 93.000 C 107.093 93.000,106.662 93.431,106.161 93.958 M121.573 94.875 L 121.083 95.417 121.625 94.927 C 121.923 94.658,122.167 94.414,122.167 94.385 C 122.167 94.257,122.029 94.370,121.573 94.875 M292.667 94.719 C 292.667 94.748,292.910 94.991,293.208 95.260 L 293.750 95.750 293.260 95.208 C 292.804 94.703,292.667 94.590,292.667 94.719 M277.583 95.667 C 277.941 96.033,278.272 96.333,278.318 96.333 C 278.363 96.333,278.108 96.033,277.750 95.667 C 277.392 95.300,277.062 95.000,277.016 95.000 C 276.970 95.000,277.225 95.300,277.583 95.667 M103.497 96.792 L 101.917 98.417 103.542 96.837 C 105.051 95.369,105.242 95.167,105.122 95.167 C 105.097 95.167,104.366 95.898,103.497 96.792 M119.073 97.042 L 118.583 97.583 119.125 97.094 C 119.423 96.825,119.667 96.581,119.667 96.552 C 119.667 96.423,119.529 96.537,119.073 97.042 M294.667 96.719 C 294.667 96.748,294.910 96.991,295.208 97.260 L 295.750 97.750 295.260 97.208 C 294.804 96.703,294.667 96.590,294.667 96.719 M279.750 97.667 C 280.108 98.033,280.438 98.333,280.484 98.333 C 280.530 98.333,280.275 98.033,279.917 97.667 C 279.559 97.300,279.228 97.000,279.182 97.000 C 279.137 97.000,279.392 97.300,279.750 97.667 M117.162 98.792 L 116.083 99.917 117.208 98.838 C 118.253 97.836,118.410 97.667,118.287 97.667 C 118.261 97.667,117.755 98.173,117.162 98.792 M281.250 99.000 C 281.608 99.367,281.938 99.667,281.984 99.667 C 282.030 99.667,281.775 99.367,281.417 99.000 C 281.059 98.633,280.728 98.333,280.682 98.333 C 280.637 98.333,280.892 98.633,281.250 99.000 M297.417 99.667 C 297.775 100.033,298.105 100.333,298.151 100.333 C 298.197 100.333,297.941 100.033,297.583 99.667 C 297.225 99.300,296.895 99.000,296.849 99.000 C 296.803 99.000,297.059 99.300,297.417 99.667 M298.500 100.885 C 298.500 100.914,298.744 101.158,299.042 101.427 L 299.583 101.917 299.094 101.375 C 298.638 100.870,298.500 100.757,298.500 100.885 M287.250 105.000 C 287.701 105.458,288.108 105.833,288.154 105.833 C 288.200 105.833,287.868 105.458,287.417 105.000 C 286.965 104.542,286.558 104.167,286.513 104.167 C 286.467 104.167,286.799 104.542,287.250 105.000 M110.409 105.542 L 109.750 106.250 110.458 105.591 C 110.848 105.229,111.167 104.910,111.167 104.883 C 111.167 104.757,111.022 104.883,110.409 105.542 M288.667 106.552 C 288.667 106.581,288.910 106.825,289.208 107.094 L 289.750 107.583 289.260 107.042 C 288.804 106.537,288.667 106.423,288.667 106.552 M290.750 108.833 C 291.108 109.200,291.438 109.500,291.484 109.500 C 291.530 109.500,291.275 109.200,290.917 108.833 C 290.559 108.467,290.228 108.167,290.182 108.167 C 290.137 108.167,290.392 108.467,290.750 108.833 M292.167 110.500 C 292.550 110.958,292.902 111.333,292.948 111.333 C 292.994 111.333,292.717 110.958,292.333 110.500 C 291.950 110.042,291.598 109.667,291.552 109.667 C 291.506 109.667,291.783 110.042,292.167 110.500 M298.666 118.792 C 298.884 119.090,299.089 119.333,299.121 119.333 C 299.247 119.333,298.834 118.708,298.561 118.486 C 298.381 118.340,298.421 118.456,298.666 118.792 M315.606 124.578 C 315.838 124.992,316.091 125.370,316.171 125.419 C 316.250 125.468,316.125 125.169,315.894 124.756 C 315.662 124.342,315.409 123.963,315.329 123.914 C 315.250 123.865,315.375 124.164,315.606 124.578 M305.745 129.656 C 305.884 129.925,306.073 130.192,306.166 130.249 C 306.258 130.307,306.176 130.086,305.984 129.760 C 305.562 129.045,305.390 128.970,305.745 129.656 M327.345 149.250 C 327.345 149.342,327.452 149.604,327.583 149.833 C 327.714 150.063,327.822 150.175,327.822 150.083 C 327.822 149.992,327.714 149.729,327.583 149.500 C 327.452 149.271,327.345 149.158,327.345 149.250 M78.860 159.757 C 78.581 160.370,78.634 160.501,78.936 159.944 C 79.077 159.683,79.162 159.439,79.123 159.401 C 79.085 159.363,78.967 159.523,78.860 159.757 M62.539 180.833 C 62.539 181.154,62.573 181.285,62.615 181.125 C 62.657 180.965,62.657 180.702,62.615 180.542 C 62.573 180.381,62.539 180.512,62.539 180.833 M336.039 183.167 C 336.039 183.487,336.073 183.619,336.115 183.458 C 336.157 183.298,336.157 183.035,336.115 182.875 C 336.073 182.715,336.039 182.846,336.039 183.167 M61.875 185.417 C 61.877 185.783,61.911 185.914,61.951 185.706 C 61.991 185.499,61.990 185.199,61.948 185.040 C 61.906 184.880,61.874 185.050,61.875 185.417 M325.379 186.167 C 325.379 186.579,325.411 186.748,325.451 186.542 C 325.491 186.335,325.491 185.998,325.451 185.792 C 325.411 185.585,325.379 185.754,325.379 186.167 M336.712 188.167 C 336.712 188.579,336.745 188.748,336.784 188.542 C 336.824 188.335,336.824 187.998,336.784 187.792 C 336.745 187.585,336.712 187.754,336.712 188.167 M61.217 191.167 C 61.217 191.671,61.248 191.877,61.286 191.625 C 61.324 191.373,61.324 190.960,61.286 190.708 C 61.248 190.456,61.217 190.662,61.217 191.167 M326.048 191.750 C 326.049 192.208,326.081 192.376,326.120 192.123 C 326.158 191.869,326.157 191.494,326.117 191.289 C 326.078 191.084,326.046 191.292,326.048 191.750 M71.875 195.250 C 71.877 195.617,71.911 195.747,71.951 195.540 C 71.991 195.332,71.990 195.032,71.948 194.873 C 71.906 194.714,71.874 194.883,71.875 195.250 M337.385 195.583 C 337.386 196.133,337.417 196.338,337.454 196.039 C 337.491 195.739,337.490 195.289,337.452 195.039 C 337.414 194.788,337.384 195.033,337.385 195.583 M337.545 199.000 C 337.545 199.412,337.578 199.581,337.618 199.375 C 337.657 199.169,337.657 198.831,337.618 198.625 C 337.578 198.419,337.545 198.588,337.545 199.000 M71.717 199.500 C 71.717 200.004,71.748 200.210,71.786 199.958 C 71.824 199.706,71.824 199.294,71.786 199.042 C 71.748 198.790,71.717 198.996,71.717 199.500 M60.564 201.167 C 60.564 202.313,60.591 202.781,60.623 202.208 C 60.656 201.635,60.656 200.698,60.623 200.125 C 60.591 199.552,60.564 200.021,60.564 201.167 M326.726 201.417 C 326.725 202.242,326.754 202.600,326.788 202.213 C 326.823 201.827,326.824 201.152,326.789 200.713 C 326.755 200.275,326.726 200.592,326.726 201.417 M71.542 202.583 C 71.544 202.950,71.578 203.080,71.618 202.873 C 71.658 202.666,71.656 202.366,71.615 202.206 C 71.573 202.047,71.540 202.217,71.542 202.583 M60.565 213.833 C 60.565 215.071,60.592 215.577,60.624 214.958 C 60.656 214.340,60.656 213.327,60.624 212.708 C 60.592 212.090,60.565 212.596,60.565 213.833 M326.717 214.500 C 326.717 215.004,326.748 215.210,326.786 214.958 C 326.824 214.706,326.824 214.294,326.786 214.042 C 326.748 213.790,326.717 213.996,326.717 214.500 M71.718 215.250 C 71.719 215.800,71.750 216.005,71.787 215.705 C 71.825 215.406,71.824 214.956,71.786 214.705 C 71.748 214.455,71.717 214.700,71.718 215.250 M337.387 219.333 C 337.387 219.929,337.417 220.173,337.454 219.875 C 337.491 219.577,337.491 219.090,337.454 218.792 C 337.417 218.494,337.387 218.737,337.387 219.333 M71.872 219.667 C 71.872 219.987,71.906 220.119,71.948 219.958 C 71.990 219.798,71.990 219.535,71.948 219.375 C 71.906 219.215,71.872 219.346,71.872 219.667 M326.039 223.000 C 326.039 223.321,326.073 223.452,326.115 223.292 C 326.157 223.131,326.157 222.869,326.115 222.708 C 326.073 222.548,326.039 222.679,326.039 223.000 M61.220 223.667 C 61.220 224.262,61.250 224.506,61.287 224.208 C 61.324 223.910,61.324 223.423,61.287 223.125 C 61.250 222.827,61.220 223.071,61.220 223.667 M72.539 226.167 C 72.539 226.487,72.573 226.619,72.615 226.458 C 72.657 226.298,72.657 226.035,72.615 225.875 C 72.573 225.715,72.539 225.846,72.539 226.167 M336.705 226.500 C 336.705 226.821,336.740 226.952,336.782 226.792 C 336.823 226.631,336.823 226.369,336.782 226.208 C 336.740 226.048,336.705 226.179,336.705 226.500 M61.881 229.417 C 61.882 229.875,61.915 230.043,61.953 229.789 C 61.991 229.536,61.990 229.161,61.951 228.956 C 61.911 228.751,61.880 228.958,61.881 229.417 M336.039 231.500 C 336.039 231.821,336.073 231.952,336.115 231.792 C 336.157 231.631,336.157 231.369,336.115 231.208 C 336.073 231.048,336.039 231.179,336.039 231.500 M323.204 239.465 L 322.825 240.083 323.246 239.616 C 323.477 239.359,323.667 239.077,323.667 238.991 C 323.667 238.746,323.610 238.803,323.204 239.465 M314.333 244.083 C 313.928 244.496,313.635 244.833,313.681 244.833 C 313.726 244.833,314.095 244.496,314.500 244.083 C 314.905 243.671,315.199 243.333,315.153 243.333 C 315.107 243.333,314.738 243.671,314.333 244.083 M336.333 244.250 C 336.831 244.754,337.276 245.167,337.322 245.167 C 337.368 245.167,336.998 244.754,336.500 244.250 C 336.002 243.746,335.557 243.333,335.511 243.333 C 335.466 243.333,335.835 243.746,336.333 244.250 M86.152 245.639 C 86.242 245.807,86.446 246.050,86.606 246.180 C 86.786 246.327,86.746 246.210,86.501 245.875 C 86.063 245.277,85.899 245.166,86.152 245.639 M58.539 252.833 C 58.539 253.154,58.573 253.285,58.615 253.125 C 58.657 252.965,58.657 252.702,58.615 252.542 C 58.573 252.381,58.539 252.512,58.539 252.833 M340.714 253.083 C 340.716 253.542,340.748 253.709,340.786 253.456 C 340.825 253.203,340.824 252.828,340.784 252.623 C 340.744 252.418,340.713 252.625,340.714 253.083 M340.705 257.167 C 340.705 257.487,340.740 257.619,340.782 257.458 C 340.823 257.298,340.823 257.035,340.782 256.875 C 340.740 256.715,340.705 256.846,340.705 257.167 M300.027 284.757 C 299.748 285.370,299.801 285.501,300.103 284.944 C 300.244 284.683,300.328 284.439,300.290 284.401 C 300.252 284.363,300.134 284.523,300.027 284.757 M298.027 291.424 C 297.748 292.037,297.801 292.167,298.103 291.610 C 298.244 291.350,298.328 291.106,298.290 291.068 C 298.252 291.030,298.134 291.190,298.027 291.424 M103.845 300.250 C 103.845 300.342,103.952 300.604,104.083 300.833 C 104.214 301.063,104.322 301.175,104.322 301.083 C 104.322 300.992,104.214 300.729,104.083 300.500 C 103.952 300.271,103.845 300.158,103.845 300.250 M107.178 311.250 C 107.178 311.342,107.286 311.604,107.417 311.833 C 107.548 312.063,107.655 312.175,107.655 312.083 C 107.655 311.992,107.548 311.729,107.417 311.500 C 107.286 311.271,107.178 311.158,107.178 311.250 M286.872 329.000 C 286.872 329.321,286.906 329.452,286.948 329.292 C 286.990 329.131,286.990 328.869,286.948 328.708 C 286.906 328.548,286.872 328.679,286.872 329.000 M112.372 332.167 C 112.372 332.487,112.406 332.619,112.448 332.458 C 112.490 332.298,112.490 332.035,112.448 331.875 C 112.406 331.715,112.372 331.846,112.372 332.167 M107.746 341.708 L 106.583 342.917 107.792 341.754 C 108.914 340.675,109.076 340.500,108.954 340.500 C 108.928 340.500,108.385 341.044,107.746 341.708 M313.333 341.583 C 312.928 341.996,312.635 342.333,312.681 342.333 C 312.726 342.333,313.095 341.996,313.500 341.583 C 313.905 341.171,314.199 340.833,314.153 340.833 C 314.107 340.833,313.738 341.171,313.333 341.583 M86.000 341.750 C 86.311 342.071,86.603 342.333,86.649 342.333 C 86.695 342.333,86.478 342.071,86.167 341.750 C 85.856 341.429,85.564 341.167,85.518 341.167 C 85.472 341.167,85.689 341.429,86.000 341.750 M291.917 342.167 C 292.275 342.533,292.605 342.833,292.651 342.833 C 292.697 342.833,292.441 342.533,292.083 342.167 C 291.725 341.800,291.395 341.500,291.349 341.500 C 291.303 341.500,291.559 341.800,291.917 342.167 M91.574 345.241 C 91.751 345.383,92.014 345.494,92.157 345.487 C 92.381 345.475,92.383 345.461,92.167 345.381 C 92.029 345.330,91.767 345.219,91.583 345.135 C 91.255 344.984,91.255 344.986,91.574 345.241 " stroke="none" fill="#b41919" fill-rule="evenodd"></path><path id="path4" d="M356.144 266.257 C 356.453 266.390,356.790 266.497,356.894 266.493 C 356.998 266.490,356.831 266.377,356.523 266.243 C 356.214 266.110,355.877 266.003,355.773 266.007 C 355.668 266.010,355.836 266.123,356.144 266.257 M46.583 266.500 C 46.767 266.579,47.029 266.643,47.167 266.643 C 47.324 266.643,47.293 266.590,47.083 266.500 C 46.900 266.421,46.637 266.357,46.500 266.357 C 46.342 266.357,46.373 266.410,46.583 266.500 M351.357 266.839 C 351.140 267.019,351.042 267.167,351.138 267.167 C 351.235 267.167,351.363 267.086,351.424 266.988 C 351.485 266.890,351.695 266.745,351.892 266.666 C 352.099 266.582,352.145 266.519,352.000 266.516 C 351.863 266.513,351.573 266.659,351.357 266.839 M49.222 267.937 C 49.666 268.406,50.207 269.081,50.426 269.437 C 50.644 269.792,50.825 270.026,50.828 269.955 C 50.840 269.669,49.986 268.538,49.226 267.833 L 48.417 267.084 49.222 267.937 M349.910 268.042 L 349.083 268.917 349.958 268.090 C 350.440 267.635,350.833 267.241,350.833 267.215 C 350.833 267.090,350.679 267.229,349.910 268.042 M348.756 269.431 C 348.600 269.668,348.502 269.891,348.537 269.926 C 348.572 269.961,348.732 269.767,348.893 269.495 C 349.252 268.887,349.145 268.837,348.756 269.431 M38.398 269.589 C 38.246 269.821,38.152 270.041,38.189 270.078 C 38.226 270.115,38.383 269.925,38.537 269.656 C 38.881 269.057,38.779 269.007,38.398 269.589 M360.579 269.292 C 361.075 270.253,361.164 270.386,361.162 270.167 C 361.160 270.029,361.004 269.729,360.815 269.500 C 360.626 269.271,360.520 269.177,360.579 269.292 M50.845 270.250 C 50.845 270.342,50.952 270.604,51.083 270.833 C 51.214 271.063,51.322 271.175,51.322 271.083 C 51.322 270.992,51.214 270.729,51.083 270.500 C 50.952 270.271,50.845 270.158,50.845 270.250 M37.860 270.924 C 37.754 271.158,37.670 271.439,37.673 271.550 C 37.677 271.660,37.790 271.495,37.926 271.183 C 38.211 270.527,38.150 270.288,37.860 270.924 M361.179 270.667 C 361.179 270.907,361.649 271.861,361.661 271.644 C 361.664 271.586,361.557 271.286,361.423 270.977 C 361.289 270.669,361.179 270.529,361.179 270.667 M361.718 272.917 C 361.719 273.467,361.750 273.672,361.787 273.372 C 361.825 273.072,361.824 272.622,361.786 272.372 C 361.748 272.122,361.717 272.367,361.718 272.917 M51.512 272.333 C 51.512 272.574,51.982 273.528,51.994 273.311 C 51.997 273.253,51.890 272.953,51.757 272.644 C 51.623 272.336,51.513 272.196,51.512 272.333 M347.631 272.421 C 347.580 272.602,347.487 272.900,347.425 273.083 C 347.363 273.267,347.434 273.206,347.583 272.948 C 347.732 272.691,347.825 272.393,347.790 272.286 C 347.754 272.179,347.683 272.240,347.631 272.421 M37.550 273.167 C 37.550 273.671,37.581 273.877,37.619 273.625 C 37.658 273.373,37.658 272.960,37.619 272.708 C 37.581 272.456,37.550 272.662,37.550 273.167 M361.371 274.708 C 361.087 275.493,361.127 275.706,361.427 275.013 C 361.564 274.699,361.653 274.375,361.625 274.292 C 361.598 274.210,361.483 274.397,361.371 274.708 M38.346 276.667 C 38.345 276.907,38.815 277.861,38.827 277.644 C 38.831 277.586,38.724 277.286,38.590 276.977 C 38.456 276.669,38.346 276.529,38.346 276.667 M52.841 276.690 C 52.837 276.841,52.989 277.291,53.179 277.690 C 53.552 278.474,53.512 278.161,53.102 277.083 C 52.962 276.717,52.845 276.540,52.841 276.690 M346.298 276.754 C 346.247 276.935,346.154 277.233,346.092 277.417 C 346.030 277.600,346.101 277.539,346.250 277.282 C 346.399 277.024,346.492 276.726,346.456 276.619 C 346.421 276.513,346.350 276.573,346.298 276.754 M360.131 278.921 C 360.080 279.102,359.987 279.400,359.925 279.583 C 359.863 279.767,359.934 279.706,360.083 279.448 C 360.232 279.191,360.325 278.893,360.290 278.786 C 360.254 278.679,360.183 278.740,360.131 278.921 M53.512 279.000 C 53.512 279.240,53.982 280.194,53.994 279.977 C 53.997 279.919,53.890 279.619,53.757 279.311 C 53.623 279.002,53.513 278.862,53.512 279.000 M54.174 281.023 C 54.170 281.174,54.322 281.624,54.512 282.023 C 54.885 282.807,54.845 282.495,54.435 281.417 C 54.295 281.050,54.178 280.873,54.174 281.023 M39.678 281.083 C 39.678 281.175,39.786 281.438,39.917 281.667 C 40.048 281.896,40.155 282.008,40.155 281.917 C 40.155 281.825,40.048 281.563,39.917 281.333 C 39.786 281.104,39.678 280.992,39.678 281.083 M358.694 283.590 C 358.414 284.203,358.468 284.334,358.770 283.777 C 358.911 283.517,358.995 283.273,358.957 283.235 C 358.919 283.196,358.800 283.357,358.694 283.590 M343.560 285.678 C 343.455 286.084,343.321 286.604,343.262 286.833 C 343.202 287.063,343.310 286.881,343.502 286.431 C 343.693 285.980,343.827 285.460,343.800 285.276 C 343.769 285.066,343.678 285.217,343.560 285.678 M55.515 285.417 C 55.519 285.754,56.145 287.392,56.152 287.083 C 56.154 286.992,56.011 286.504,55.833 286.000 C 55.656 285.496,55.513 285.233,55.515 285.417 M357.771 286.423 C 357.713 286.572,357.673 286.819,357.681 286.972 C 357.689 287.125,357.761 287.029,357.842 286.758 C 357.999 286.232,357.944 285.972,357.771 286.423 M41.679 287.667 C 41.679 287.907,42.149 288.861,42.161 288.644 C 42.164 288.586,42.057 288.286,41.923 287.977 C 41.789 287.669,41.679 287.529,41.679 287.667 M357.277 288.249 C 357.108 288.658,357.008 289.088,357.055 289.205 C 357.106 289.332,357.146 289.297,357.154 289.117 C 357.161 288.952,357.284 288.590,357.427 288.314 C 357.570 288.037,357.664 287.742,357.635 287.658 C 357.607 287.574,357.445 287.840,357.277 288.249 M56.339 288.189 C 56.336 288.247,56.443 288.547,56.577 288.856 C 56.711 289.164,56.821 289.304,56.821 289.167 C 56.821 288.926,56.351 287.972,56.339 288.189 M342.694 288.590 C 342.587 288.824,342.503 289.106,342.507 289.216 C 342.510 289.326,342.624 289.162,342.759 288.850 C 343.044 288.194,342.984 287.954,342.694 288.590 M342.296 289.917 C 342.238 290.192,342.146 290.567,342.093 290.750 C 342.039 290.933,342.113 290.831,342.256 290.522 C 342.400 290.213,342.491 289.838,342.459 289.689 C 342.426 289.531,342.357 289.628,342.296 289.917 M42.345 289.917 C 42.345 290.008,42.452 290.271,42.583 290.500 C 42.714 290.729,42.822 290.842,42.822 290.750 C 42.822 290.658,42.714 290.396,42.583 290.167 C 42.452 289.938,42.345 289.825,42.345 289.917 M356.591 290.484 C 356.429 290.843,356.336 291.238,356.385 291.360 C 356.444 291.508,356.478 291.482,356.487 291.283 C 356.494 291.118,356.618 290.755,356.762 290.476 C 356.907 290.197,356.993 289.938,356.955 289.899 C 356.917 289.861,356.753 290.124,356.591 290.484 M356.131 292.088 C 356.080 292.269,355.987 292.567,355.925 292.750 C 355.863 292.933,355.934 292.873,356.083 292.615 C 356.232 292.357,356.325 292.059,356.290 291.953 C 356.254 291.846,356.183 291.907,356.131 292.088 M43.012 292.083 C 43.012 292.175,43.119 292.438,43.250 292.667 C 43.381 292.896,43.488 293.008,43.488 292.917 C 43.488 292.825,43.381 292.563,43.250 292.333 C 43.119 292.104,43.012 291.992,43.012 292.083 M57.678 292.583 C 57.678 292.675,57.786 292.938,57.917 293.167 C 58.048 293.396,58.155 293.508,58.155 293.417 C 58.155 293.325,58.048 293.063,57.917 292.833 C 57.786 292.604,57.678 292.492,57.678 292.583 M341.360 292.924 C 341.081 293.537,341.134 293.667,341.436 293.110 C 341.577 292.850,341.662 292.606,341.623 292.568 C 341.585 292.530,341.467 292.690,341.360 292.924 M43.684 294.167 C 43.686 294.456,44.310 296.001,44.324 295.750 C 44.329 295.658,44.187 295.208,44.008 294.750 C 43.829 294.292,43.683 294.029,43.684 294.167 M355.186 295.016 C 355.084 295.310,355.005 295.632,355.012 295.733 C 355.018 295.834,355.131 295.623,355.262 295.265 C 355.394 294.906,355.472 294.583,355.437 294.548 C 355.401 294.512,355.288 294.723,355.186 295.016 M58.346 294.843 C 58.339 294.986,58.450 295.249,58.593 295.426 C 58.848 295.745,58.849 295.745,58.698 295.417 C 58.614 295.233,58.503 294.971,58.452 294.833 C 58.372 294.617,58.358 294.619,58.346 294.843 M354.701 296.781 C 354.315 297.917,354.302 298.098,354.661 297.343 C 354.854 296.936,354.991 296.500,354.964 296.374 C 354.938 296.249,354.819 296.432,354.701 296.781 M44.508 296.833 C 44.507 296.879,44.613 297.217,44.745 297.583 C 44.877 297.950,44.986 298.100,44.987 297.917 C 44.988 297.639,44.519 296.577,44.508 296.833 M59.012 297.000 C 59.012 297.240,59.482 298.194,59.494 297.977 C 59.497 297.919,59.390 297.619,59.257 297.311 C 59.123 297.002,59.013 296.862,59.012 297.000 M340.131 297.088 C 340.080 297.269,339.987 297.567,339.925 297.750 C 339.863 297.933,339.934 297.873,340.083 297.615 C 340.232 297.357,340.325 297.059,340.290 296.953 C 340.254 296.846,340.183 296.907,340.131 297.088 M59.679 299.167 C 59.679 299.407,60.149 300.361,60.161 300.144 C 60.164 300.086,60.057 299.786,59.923 299.477 C 59.789 299.169,59.679 299.029,59.679 299.167 M339.465 299.254 C 339.413 299.435,339.320 299.733,339.258 299.917 C 339.196 300.100,339.267 300.039,339.417 299.782 C 339.566 299.524,339.659 299.226,339.623 299.119 C 339.588 299.013,339.516 299.073,339.465 299.254 M353.860 299.424 C 353.754 299.658,353.670 299.939,353.673 300.050 C 353.677 300.160,353.790 299.995,353.926 299.683 C 354.211 299.027,354.150 298.788,353.860 299.424 M45.178 299.250 C 45.178 299.342,45.286 299.604,45.417 299.833 C 45.548 300.063,45.655 300.175,45.655 300.083 C 45.655 299.992,45.548 299.729,45.417 299.500 C 45.286 299.271,45.178 299.158,45.178 299.250 M353.162 301.676 C 353.061 301.864,353.003 302.093,353.033 302.183 C 353.063 302.274,353.174 302.120,353.280 301.841 C 353.499 301.260,353.433 301.169,353.162 301.676 M47.023 305.000 C 47.023 305.137,47.088 305.400,47.167 305.583 C 47.257 305.793,47.310 305.824,47.310 305.667 C 47.310 305.529,47.245 305.267,47.167 305.083 C 47.076 304.873,47.023 304.842,47.023 305.000 M351.860 306.090 C 351.581 306.703,351.634 306.834,351.936 306.277 C 352.077 306.017,352.162 305.773,352.123 305.735 C 352.085 305.696,351.967 305.857,351.860 306.090 M337.104 306.756 C 337.047 306.905,337.008 307.190,337.017 307.389 C 337.028 307.617,337.084 307.536,337.171 307.168 C 337.317 306.548,337.277 306.306,337.104 306.756 M62.346 308.000 C 62.345 308.240,62.815 309.194,62.827 308.977 C 62.831 308.919,62.724 308.619,62.590 308.311 C 62.456 308.002,62.346 307.862,62.346 308.000 M336.798 308.088 C 336.747 308.269,336.654 308.567,336.592 308.750 C 336.530 308.933,336.601 308.873,336.750 308.615 C 336.899 308.357,336.992 308.059,336.956 307.953 C 336.921 307.846,336.850 307.907,336.798 308.088 M351.194 308.257 C 351.087 308.491,351.003 308.773,351.007 308.883 C 351.010 308.993,351.124 308.828,351.259 308.516 C 351.544 307.860,351.484 307.621,351.194 308.257 M48.506 310.023 C 48.503 310.081,48.610 310.381,48.743 310.689 C 48.877 310.998,48.987 311.137,48.988 311.000 C 48.988 310.760,48.518 309.806,48.506 310.023 M63.013 310.250 C 63.012 310.433,63.119 310.771,63.250 311.000 C 63.554 311.532,63.556 311.418,63.255 310.583 C 63.123 310.217,63.014 310.067,63.013 310.250 M336.131 310.254 C 336.080 310.435,335.987 310.733,335.925 310.917 C 335.863 311.100,335.934 311.039,336.083 310.782 C 336.232 310.524,336.325 310.226,336.290 310.119 C 336.254 310.013,336.183 310.073,336.131 310.254 M350.527 310.424 C 350.248 311.037,350.301 311.167,350.603 310.610 C 350.744 310.350,350.828 310.106,350.790 310.068 C 350.752 310.030,350.634 310.190,350.527 310.424 M49.179 312.333 C 49.179 312.574,49.649 313.528,49.661 313.311 C 49.664 313.253,49.557 312.953,49.423 312.644 C 49.289 312.336,49.179 312.196,49.179 312.333 M335.465 312.421 C 335.413 312.602,335.320 312.900,335.258 313.083 C 335.196 313.267,335.267 313.206,335.417 312.948 C 335.566 312.691,335.659 312.393,335.623 312.286 C 335.588 312.179,335.516 312.240,335.465 312.421 M349.860 312.757 C 349.581 313.370,349.634 313.501,349.936 312.944 C 350.077 312.683,350.162 312.439,350.123 312.401 C 350.085 312.363,349.967 312.523,349.860 312.757 M63.839 312.856 C 63.836 312.914,63.943 313.214,64.077 313.523 C 64.211 313.831,64.321 313.971,64.321 313.833 C 64.321 313.593,63.851 312.639,63.839 312.856 M64.506 315.023 C 64.503 315.081,64.610 315.381,64.743 315.689 C 64.877 315.998,64.987 316.137,64.988 316.000 C 64.988 315.760,64.518 314.806,64.506 315.023 M348.937 315.423 C 348.880 315.572,348.840 315.819,348.848 315.972 C 348.856 316.125,348.928 316.029,349.009 315.758 C 349.166 315.232,349.110 314.972,348.937 315.423 M65.013 316.750 C 65.012 316.933,65.119 317.271,65.250 317.500 C 65.554 318.032,65.556 317.918,65.255 317.083 C 65.123 316.717,65.014 316.567,65.013 316.750 M50.519 316.667 C 50.515 316.712,50.656 317.162,50.833 317.667 C 51.011 318.171,51.156 318.433,51.157 318.250 C 51.158 317.965,50.541 316.435,50.519 316.667 M347.860 319.257 C 347.581 319.870,347.634 320.001,347.936 319.444 C 348.077 319.183,348.162 318.939,348.123 318.901 C 348.085 318.863,347.967 319.023,347.860 319.257 M51.342 319.333 C 51.340 319.379,51.446 319.717,51.579 320.083 C 51.711 320.450,51.819 320.600,51.820 320.417 C 51.821 320.139,51.352 319.077,51.342 319.333 M333.194 319.757 C 333.087 319.991,333.003 320.273,333.007 320.383 C 333.010 320.493,333.124 320.328,333.259 320.016 C 333.544 319.360,333.484 319.121,333.194 319.757 M347.114 321.629 C 346.959 322.062,346.835 322.529,346.838 322.667 C 346.842 322.804,346.996 322.477,347.181 321.939 C 347.366 321.401,347.490 320.934,347.457 320.901 C 347.424 320.868,347.269 321.195,347.114 321.629 M51.929 321.417 C 52.322 322.544,52.485 322.888,52.486 322.583 C 52.486 322.400,52.335 321.987,52.149 321.667 C 51.964 321.346,51.865 321.233,51.929 321.417 M332.631 321.754 C 332.580 321.935,332.487 322.233,332.425 322.417 C 332.363 322.600,332.434 322.539,332.583 322.282 C 332.732 322.024,332.825 321.726,332.790 321.619 C 332.754 321.513,332.683 321.573,332.631 321.754 M52.596 323.583 C 52.988 324.711,53.152 325.054,53.152 324.750 C 53.153 324.567,53.001 324.154,52.816 323.833 C 52.631 323.512,52.532 323.400,52.596 323.583 M346.360 324.090 C 346.254 324.324,346.170 324.643,346.174 324.800 C 346.178 324.956,346.287 324.786,346.416 324.423 C 346.685 323.668,346.650 323.456,346.360 324.090 M67.173 323.856 C 67.169 323.914,67.276 324.214,67.410 324.523 C 67.544 324.831,67.654 324.971,67.654 324.833 C 67.655 324.593,67.185 323.639,67.173 323.856 M331.860 324.257 C 331.581 324.870,331.634 325.001,331.936 324.444 C 332.077 324.183,332.162 323.939,332.123 323.901 C 332.085 323.863,331.967 324.023,331.860 324.257 M53.179 325.500 C 53.179 325.740,53.649 326.694,53.661 326.477 C 53.664 326.419,53.557 326.119,53.423 325.811 C 53.289 325.502,53.179 325.362,53.179 325.500 M67.840 325.939 C 67.836 326.043,67.943 326.381,68.077 326.689 C 68.211 326.998,68.323 327.165,68.327 327.061 C 68.330 326.957,68.224 326.619,68.090 326.311 C 67.956 326.002,67.843 325.835,67.840 325.939 M345.298 327.754 C 345.247 327.935,345.154 328.233,345.092 328.417 C 345.030 328.600,345.101 328.539,345.250 328.282 C 345.399 328.024,345.492 327.726,345.456 327.619 C 345.421 327.513,345.350 327.573,345.298 327.754 M68.512 328.333 C 68.512 328.574,68.982 329.528,68.994 329.311 C 68.997 329.253,68.890 328.953,68.757 328.644 C 68.623 328.336,68.513 328.196,68.512 328.333 M344.631 329.921 C 344.580 330.102,344.487 330.400,344.425 330.583 C 344.363 330.767,344.434 330.706,344.583 330.448 C 344.732 330.191,344.825 329.893,344.790 329.786 C 344.754 329.679,344.683 329.740,344.631 329.921 M69.372 332.000 C 69.372 332.321,69.406 332.452,69.448 332.292 C 69.490 332.131,69.490 331.869,69.448 331.708 C 69.406 331.548,69.372 331.679,69.372 332.000 M329.872 332.000 C 329.872 332.321,329.906 332.452,329.948 332.292 C 329.990 332.131,329.990 331.869,329.948 331.708 C 329.906 331.548,329.872 331.679,329.872 332.000 M55.184 332.000 C 55.186 332.289,55.810 333.834,55.824 333.583 C 55.829 333.492,55.687 333.042,55.508 332.583 C 55.329 332.125,55.183 331.862,55.184 332.000 M343.027 334.924 C 342.748 335.537,342.801 335.667,343.103 335.110 C 343.244 334.850,343.328 334.606,343.290 334.568 C 343.252 334.530,343.134 334.690,343.027 334.924 M68.568 335.375 C 68.417 335.673,68.171 336.065,68.022 336.247 C 67.765 336.560,67.767 336.565,68.054 336.342 C 68.350 336.111,69.088 334.833,68.924 334.833 C 68.879 334.833,68.718 335.077,68.568 335.375 M330.653 335.428 C 330.830 335.801,331.103 336.211,331.258 336.340 C 331.518 336.556,331.382 336.315,330.540 335.062 C 330.424 334.891,330.475 335.055,330.653 335.428 M57.493 336.875 C 57.902 337.310,58.258 337.667,58.285 337.667 C 58.410 337.667,58.278 337.517,57.542 336.826 L 56.750 336.083 57.493 336.875 M341.575 337.042 L 340.917 337.750 341.625 337.091 C 342.284 336.478,342.410 336.333,342.284 336.333 C 342.257 336.333,341.938 336.652,341.575 337.042 M67.167 337.186 C 66.846 337.464,66.302 337.838,65.958 338.016 C 65.615 338.194,65.333 338.378,65.333 338.423 C 65.333 338.604,66.621 337.831,67.250 337.272 C 67.617 336.947,67.879 336.680,67.833 336.680 C 67.787 336.680,67.487 336.908,67.167 337.186 M331.500 336.716 C 331.500 336.758,331.853 337.082,332.284 337.436 C 332.715 337.789,333.014 337.991,332.948 337.884 C 332.808 337.658,331.500 336.602,331.500 336.716 M58.597 337.855 C 58.707 338.034,60.008 338.714,60.088 338.634 C 60.118 338.604,59.774 338.382,59.324 338.142 C 58.873 337.902,58.546 337.772,58.597 337.855 M333.629 338.334 C 334.337 338.765,334.568 338.765,333.917 338.333 C 333.642 338.151,333.342 338.002,333.250 338.002 C 333.158 338.001,333.329 338.151,333.629 338.334 M339.583 338.345 C 339.308 338.521,339.158 338.665,339.250 338.665 C 339.342 338.665,339.642 338.515,339.917 338.333 C 340.192 338.151,340.342 338.007,340.250 338.013 C 340.158 338.019,339.858 338.168,339.583 338.345 M334.708 338.782 C 334.869 338.823,335.131 338.823,335.292 338.782 C 335.452 338.740,335.321 338.705,335.000 338.705 C 334.679 338.705,334.548 338.740,334.708 338.782 M62.208 338.953 C 62.460 338.991,62.873 338.991,63.125 338.953 C 63.377 338.915,63.171 338.883,62.667 338.883 C 62.163 338.883,61.956 338.915,62.208 338.953 M336.121 338.954 C 336.417 338.990,336.942 338.991,337.288 338.955 C 337.634 338.919,337.392 338.889,336.750 338.888 C 336.108 338.887,335.825 338.917,336.121 338.954 " stroke="none" fill="#2c0505" fill-rule="evenodd"></path></g></svg>